<svg xmlns="http://www.w3.org/2000/svg" viewBox="0 0 1889.97 287.7"><title>GHOST BIKE</title><g id="Capa_2" data-name="Capa 2"><g id="Capa_1-2" data-name="Capa 1"><g id="JBqsEy"><path d="M449.12,203.34q22.69-38.84,45.38-77.69c7.85-13.48,15.27-27.22,23.52-40.45,9.94-15.94,23.82-24.94,43.57-24.84,69.22.35,138.44.14,207.66.14,1.4,0,2.8,0,4.2,0,7.28.14,8,1.35,4.38,7.55-.4.69-.87,1.35-1.27,2-11.8,20-6,16.53-29,16.64q-66.62.29-133.24-.08c-8.8-.06-13.89,3.41-18.12,10.87-16.26,28.7-33,57.12-49.57,85.65-1.2,2.07-2.4,4.16-3.55,6.26-4.22,7.76-2,11.47,7.09,11.54,12.6.1,25.21,0,37.81,0,6.2,0,12.41-.11,18.6,0,5.29.1,9.38-1.95,12.06-6.44,4.71-7.9,9.24-15.91,13.89-23.84,1.5-2.55,1.2-4.88-.31-7.31-2.21-3.57-4.16-7.3-6.43-10.83-3.93-6.11-3.57-11.93.35-17.94a9.14,9.14,0,0,1,8.45-4.55c32.81.06,65.62,0,98.43.07,6.7,0,7.72,1.68,4.39,7.48-13,22.71-25.68,45.69-39.6,67.85-9,14.31-22.81,21.9-40.33,21.87q-94.23-.12-188.45.1c-8.23,0-15-1.68-19.87-8.53Q449.12,211.15,449.12,203.34Z"/><path d="M1890,65.26c-3.07,4.92-6.46,9.67-9.11,14.8s-6.42,6.88-12.08,6.82c-22.21-.22-44.43.08-66.63-.21-5.31-.07-8.57,1.7-11.14,6.17q-24.39,42.38-49,84.63c-8.63,14.88-17.36,29.7-25.91,44.62-2.13,3.72-5,5.31-9.26,5.29-24-.1-48,0-72-.08-6.19,0-6.8-1.27-3.64-6.67q36.7-63,73.43-126c.5-.86.95-1.76,1.47-2.62,2.33-3.79,1.31-5.35-3.16-5.3-11.2.12-22.41,0-33.62,0-15.16,0-14.62.88-7.88-12.75,5.22-10.55,12-14,23.85-13.85,68.23.62,136.47.28,204.71.27Z"/><path d="M1139,227.34c-32,0-64-.1-96,.07-7.37,0-13.62-1.74-17.34-8.4s-2.41-12.9,1.32-19.29c22.58-38.68,44.77-77.59,67.58-116.13,8.7-14.71,22.18-23,39.61-23,63.62-.16,127.24,0,190.85-.1,7.41,0,14.19,1.15,17.94,8.31s2.08,13.68-1.86,20.4c-22.14,37.78-44,75.75-66.1,113.53-9.53,16.28-23.7,24.81-43,24.69C1201,227.21,1170,227.34,1139,227.34ZM1152.73,201c8.8,0,17.62-.37,26.4.11,8,.44,13.21-2.92,17.1-9.64,18-31.16,36.18-62.23,54.19-93.38,3.95-6.83,1.33-11.22-6.64-11.26-18.8-.09-37.61,0-56.41-.07a14.77,14.77,0,0,0-13.49,7.43c-2.84,4.59-5.43,9.33-8.15,14q-23.44,40.14-46.88,80.29c-5,8.67-2.7,12.48,7.46,12.53C1135.13,201,1143.93,201,1152.73,201Z"/><path d="M897.64,60.54c1.14-.07,4.57-.33,5.55,1.39.59,1-.07,2.78-1.73,5.6q-16.55,28.19-33,56.43c-3,5.17-2.45,6.13,3.58,6.15,21.6.05,43.21-.15,64.81.13,5.42.07,8.52-2.21,11-6.54,11-19.06,22.17-38,33-57.15,2.5-4.43,5.46-6.18,10.48-6.14,23.2.19,46.41.06,69.61.11,2.32,0,5.27-.82,6.65,1.57s-1.06,4.41-2.22,6.4q-44.48,76.48-88.92,153c-2.4,4.14-5.18,6-10,5.94-23.4-.17-46.81,0-70.21-.08-7.55,0-8.11-.92-4.43-7.27q15.33-26.46,30.79-52.85c.91-1.55,1.72-3.16,2.59-4.73,1.91-3.44.54-4.79-3-4.79q-34.5,0-69,0c-4.07,0-5.87,2.63-7.65,5.72-11.29,19.56-22.75,39-33.94,58.63-2.16,3.79-4.85,5.35-9.13,5.33-23.8-.11-47.61,0-71.41-.09-7,0-7.45-1-3.87-7.19,29.1-50.14,58.3-100.23,87.21-150.48,2.14-3.72,4.44-6.37,7.46-7.88a16,16,0,0,1,8.65-1.42C842,61.18,887.63,61.18,897.64,60.54Z"/><path d="M1415.77,227.34q-54,0-108,0c-2.47,0-5.78,1.1-7.12-1.68-1.14-2.35,1.79-4.18,2.59-6.37,5.51-15.08,15.9-19.16,31.94-18.69,44,1.28,88,.34,132,.54,7.36,0,12.61-2.07,16.15-8.86,3.87-7.44,8.44-14.51,12.67-21.76,5-8.64,2.78-12.78-7.09-12.79-38.21,0-76.43,0-114.64-.05-7.88,0-15.13-1.77-19.81-9-2.94-4.55-3.7-9.59-1.17-14.27,10.36-19.15,20.38-38.56,33.1-56.29,8.32-11.58,20.44-17.44,34.61-17.48q108.34-.3,216.67-.06c6.78,0,7.15.82,4,6.74-10.48,19.51-10.48,19.51-32.3,19.51-43.41,0-86.83.16-130.24-.14-9.21-.06-15.74,2.6-19.92,11.14-3.25,6.63-7.37,12.82-11,19.27-5.13,9.1-2.91,13.06,7.33,13.06q56.42,0,112.84,0c4.24,0,8.38.3,12.35,1.94,10.43,4.28,14.53,14.2,9.09,24-8.91,16.09-17.89,32.18-27.76,47.69-10.11,15.88-24.6,24.09-44.22,23.74C1483.8,226.9,1449.78,227.34,1415.77,227.34Z"/></g><path d="M385.32,175c4.33,0,14,.3,24.54-4.74s19.46-12,25.38-22.38c2.66-4.65,5.26-9.33,7.94-14q28-48.44,56-96.88c3.15-5.46,6.79-10.67,9.13-16.57,3.95-10-1.06-18.46-11.63-19.93a60,60,0,0,0-8.3-.49Q390.18,0,292,0c-6.95,0-13.76.51-20.31,3-12.26,4.65-22.49,12-29.05,23.5-5.44,9.55-10.85,19.13-16.41,28.6-7.89,13.43-15.47,27.06-23.49,40.42-2.14,3.57-1.9,3.86,2.28,3.86,17.32,0,34.64,0,52,0a42,42,0,0,0,13.84-2c12.18-4.12,22.91-10.39,29.77-21.64,8-13.06,15.55-26.35,23.24-39.58,4.63-8,11.48-12.1,20.66-12.13,20.38-.07,40.76,0,61.14,0a14.81,14.81,0,0,1,5.09.68c3.26,1.17,4.63,3.53,4,6.94A12.93,12.93,0,0,1,413.12,36q-19.45,33.48-38.87,67c-7.19,12.42-14.19,24.94-21.52,37.28a20.43,20.43,0,0,1-18.36,10.42q-78.79.12-157.59,0c-1.05,0-2.1,0-3.16,0a4.57,4.57,0,0,0-4.19,2.51c-3.15,5.58-6.12,11.28-9.63,16.63-1.32,2-1.93,3.3-1.53,4.08.74,1.42,3.88,1.1,4.58,1C172.3,174.26,356.22,174.88,385.32,175Z"/><path d="M122.28,113.06a53.53,53.53,0,0,0-22.8,4.78c-10.26,4.65-18.71,11.43-24.43,21.33q-12.84,22.21-25.72,44.41C42.74,195,36.22,206.45,29.62,217.86c-7.81,13.49-15.71,26.93-23.46,40.45-2.22,3.88-4.74,7.62-5.74,12.14-1.63,7.37,1.58,13.39,8.62,16a26.37,26.37,0,0,0,9.33,1.23c68,0,136.06.15,204.09-.12,19.29-.08,33.92-9.77,44.16-25.68,7.14-11.08,13.33-22.78,19.92-34.21,6.92-12,13.78-24.07,20.74-36.07,1.24-2.13.67-3-1.61-3.12-.76,0-1.53,0-2.3,0q-25.4,0-50.81,0a35,35,0,0,0-5.15.3C229,191.5,215.14,200.89,205.84,217q-10,17.39-20,34.8c-4.55,7.88-11.46,11.88-20.51,11.91-20.28.06-40.57-.21-60.85.08-9,.13-12-4.92-7.36-12.87,8.25-14,16.21-28.17,24.34-42.24Q138.65,178.91,156,149.2c4.6-7.89,11.35-12.09,20.68-12.08q70.47.08,140.94,0c5.74,0,11.48-.05,17.22,0a5.39,5.39,0,0,0,5.4-2.94c3.25-5.84,6.7-11.57,10.06-17.35,1-1.7,1.42-2.64,1.13-3.15-.56-1-2.78-.65-3.2-.6C343.27,113.71,269.61,113.5,122.28,113.06Z"/></g></g></svg>