<?xml version="1.0" encoding="utf-8"?>
<!-- Generator: Adobe Illustrator 19.2.1, SVG Export Plug-In . SVG Version: 6.00 Build 0)  -->
<svg version="1.1" id="layer" xmlns="http://www.w3.org/2000/svg" xmlns:xlink="http://www.w3.org/1999/xlink" x="0px" y="0px"
	 viewBox="0 0 652 652" style="enable-background:new 0 0 652 652;" xml:space="preserve">
<style type="text/css">
	.st0{fill:#91C300;}
</style>
<g>
	<path d="M407.9,302.2c-0.9-1.8-3.2-2.1-9.8-2.1h-58.9l-21.8,41.1l61.3,0c9.1,0,13.4-5.7,16-10.9c0,0,12.3-23.3,12.4-23.7
		c0.4-0.9,0.8-2,0.9-2.7C408.2,303.5,408.3,303,407.9,302.2z M374.4,329.8c-0.7,0.5-2.8,0.5-2.8,0.5h-29l10.1-18.9h26.3
		c3.6-0.1,4.3,0.2,4.6,0.9c0.1,0.3,0.1,0.7-0.3,1.7c0,0-5.1,9.7-7.5,14.1C375.2,329,374.9,329.4,374.4,329.8z"/>
	<path d="M213.3,311.5l6-11.3l-62.6,0c-11,0-12.6,3-14.1,5.6c-5.4,10-15.7,29.5-15.7,29.6c-0.3,0.7-0.6,1.7-0.6,2.5
		c0,0.4,0.2,0.9,0.4,1.3c0.7,0.9,2.5,2.1,7.6,2.1l63.2,0l5.8-10.9l-54.2,0l2.1-3.8l42.6,0l6-11.5l-42.5,0l1.9-3.6L213.3,311.5
		L213.3,311.5z"/>
	<polygon points="331.8,300.2 309.3,300.2 287.5,341.3 310,341.3 	"/>
	<path d="M488.6,302.2c-0.9-1.2-2.7-2-7.9-2h-55.3c-8.5,0-9.9,2.6-11.5,5.5l-18.9,35.7h21l7.9-14.8l33.9,0l-7.8,14.8h20l18.8-35.6
		c0,0,0.4-0.8,0.3-2C489.1,303.3,488.9,302.7,488.6,302.2z M431.2,312.9c0,0,0.6-1.4,2.8-1.4h29.2c1.8,0,1.9,1,1.7,1.5
		c-0.1,0.3-2.4,4.6-2.4,4.6l-33.8,0L431.2,312.9z"/>
	<path d="M298.6,302.1c-0.7-0.8-2.3-1.9-7.4-1.9l-65.9,0l-21.8,41.2l20.1,0l15.8-29.8l34.9,0c0,0,1.5,0,1,1.1
		c-0.3,0.7-0.7,1.4-0.9,1.7c-0.3,0.5-0.3,0.9-1.7,0.9c-1.2,0-24.3,0-24.3,0l-6.2,11.7l19.2,14.5h26l-18.8-14.7l9.6,0
		c7.6-0.2,9.8-1.4,12.1-5.3c0,0,8.5-16.3,8.5-16.3c0.2-0.5,0.4-0.8,0.3-1.3C299.2,303.1,299.1,302.7,298.6,302.1z"/>
	<path d="M97.6,300.2l-19.3,19.6l-5.6-19.6c0,0-20.5,0-24.9,0c-4.3,0-5.8,1.7-7.3,4.5c-0.1,0.2-19.5,36.7-19.5,36.7l20.7,0
		l15.8-29.9h4.3l6.6,21.4h14l23.5-21.4h5.6l-15.9,29.8l20.7,0l18.9-35.8c1.9-4.4,1.2-5.3-4.4-5.3L97.6,300.2z"/>
</g>
<g>
	<path class="st0" d="M599.4,361.8c3.5,0,4-1.7,1.2-3.8l-27.4-22.2c-2.8-2.1-6.3-2-9.4,0.2l-7.2,4.6c-3.6,2.4-7.9,2.8-10.5,1.2
		c-2.6-1.6-7.1-1.4-10.2,0.3l-28.4,16.6c-3,1.8-2.7,3.2,0.8,3.2H599.4z"/>
	<path class="st0" d="M619.2,345.6c5.2,5.2-2.5,6.4-6.4,3.4L572,317.6c-2.9-2-6.9-1.5-10,0.6l-7.7,5.1c-3,2.1-7.3,2.7-10.3,1
		l-0.4-0.3c-3-1.8-7.9-1.7-10.9,0.1l-39.4,25.7c-3.2,2.1-8.6,0.2-4.6-4.2l60.6-64.4c2.1-2.1,7.3-2.2,9.4,0L619.2,345.6z"/>
</g>
</svg>
