<svg width="40" height="40" viewBox="0 0 40 40" fill="none" xmlns="http://www.w3.org/2000/svg">
    <path d="M20 5.00002C16.3181 5.00002 13.3334 7.98479 13.3334 11.6667C13.3334 15.3486 16.3181 18.3334 20 18.3334C23.6819 18.3334 26.6667 15.3486 26.6667 11.6667C26.6667 7.98479 23.6819 5.00002 20 5.00002ZM26.2904 19.4409C28.5534 17.6075 30 14.806 30 11.6667C30 6.14384 25.5229 1.66669 20 1.66669C14.4772 1.66669 10 6.14384 10 11.6667C10 14.806 11.4466 17.6075 13.7097 19.4409C7.23097 21.8072 2.46214 27.7245 1.75687 34.8379C1.55789 36.8449 3.2084 38.3334 5.00002 38.3334H35C36.7917 38.3334 38.4422 36.8449 38.2432 34.8379C37.5379 27.7245 32.769 21.8072 26.2904 19.4409ZM20 21.6667C12.2794 21.6667 5.91944 27.5009 5.09142 35H34.9087C34.0805 27.5009 27.7207 21.6667 20 21.6667Z" fill="#EBF5EE"/>
</svg>
