<svg width="40" height="41" viewBox="0 0 40 41" fill="none" xmlns="http://www.w3.org/2000/svg">
    <g clip-path="url(#clip0)">
        <path d="M34.0625 5.45328H27.0312V4.28211C27.0312 2.34477 25.4541 0.768616 23.5156 0.768616H16.4844C14.5459 0.768616 12.9688 2.34477 12.9688 4.28211V5.45328H5.9375C3.99898 5.45328 2.42188 7.02943 2.42188 8.96677V11.3091C2.42188 11.9559 2.94656 12.4803 3.59375 12.4803H4.85805L6.91953 37.5389C6.91977 37.5423 6.92008 37.5456 6.92039 37.549C7.08617 39.3707 8.59141 40.7444 10.4216 40.7444H29.5784C31.4086 40.7444 32.9137 39.3707 33.0795 37.549C33.0798 37.5456 33.0802 37.5423 33.0804 37.5389L35.142 12.4803H36.4062C37.0534 12.4803 37.5781 11.9559 37.5781 11.3091V8.96677C37.5781 7.02943 36.001 5.45328 34.0625 5.45328ZM15.3125 4.28211C15.3125 3.63633 15.8382 3.11095 16.4844 3.11095H23.5156C24.1618 3.11095 24.6875 3.63633 24.6875 4.28211V5.45328H15.3125V4.28211ZM30.7451 37.3408C30.6881 37.9462 30.1871 38.4021 29.5784 38.4021H10.4216C9.81281 38.4021 9.31187 37.9462 9.25484 37.3408L7.20969 12.4803H32.7903L30.7451 37.3408ZM35.2344 10.1379H34.0625H5.9375H4.76562V8.96677C4.76562 8.32099 5.29133 7.79561 5.9375 7.79561H14.1406H25.8594H34.0625C34.7087 7.79561 35.2344 8.32099 35.2344 8.96677V10.1379Z" fill="black"/>
        <path d="M20 14.8226C19.3528 14.8226 18.8281 15.347 18.8281 15.9938V32.5462C18.8281 33.193 19.3528 33.7174 20 33.7174C20.6472 33.7174 21.1719 33.193 21.1719 32.5462V15.9938C21.1719 15.347 20.6472 14.8226 20 14.8226Z" fill="black"/>
        <path d="M27.0312 14.8226C26.3841 14.8226 25.8594 15.347 25.8594 15.9938V32.5462C25.8594 33.193 26.3841 33.7174 27.0312 33.7174C27.6784 33.7174 28.2031 33.193 28.2031 32.5462V15.9938C28.2031 15.347 27.6784 14.8226 27.0312 14.8226Z" fill="black"/>
        <path d="M12.9688 14.8226C12.3216 14.8226 11.7969 15.347 11.7969 15.9938V32.5462C11.7969 33.193 12.3216 33.7174 12.9688 33.7174C13.6159 33.7174 14.1406 33.193 14.1406 32.5462V15.9938C14.1406 15.347 13.6159 14.8226 12.9688 14.8226Z" fill="black"/>
    </g>
    <defs>
        <clipPath id="clip0">
            <rect width="40" height="39.9758" fill="white" transform="translate(0 0.768616)"/>
        </clipPath>
    </defs>
</svg>
