<svg width="40" height="40" viewBox="0 0 40 40" fill="none" xmlns="http://www.w3.org/2000/svg">
    <path d="M39.156 37.152L28.036 25.928C30.32 23.208 31.7 19.704 31.7 15.876C31.7 7.23202 24.692 0.228027 16.048 0.228027C7.40802 0.228027 0.400024 7.23202 0.400024 15.876C0.400024 24.52 7.40802 31.528 16.048 31.528C19.756 31.528 23.156 30.232 25.836 28.08L36.968 39.32C37.268 39.624 37.664 39.776 38.06 39.776C38.452 39.776 38.844 39.628 39.14 39.332C39.748 38.732 39.752 37.756 39.156 37.152ZM3.47602 15.876C3.47602 8.94002 9.11602 3.30003 16.048 3.30003C22.98 3.30003 28.624 8.94002 28.624 15.876C28.624 22.812 22.984 28.452 16.048 28.452C9.11203 28.452 3.47602 22.808 3.47602 15.876Z" fill="#283044"/>
</svg>
