<svg width="14" height="14" viewBox="0 0 14 14" fill="none" xmlns="http://www.w3.org/2000/svg">
<path d="M0.292291 2.60192C2.21374 4.22918 5.58528 7.09201 6.57621 7.98465C6.70924 8.10513 6.85192 8.16638 7.00004 8.16638C7.14786 8.16638 7.2903 8.1057 7.42302 7.9858C8.41481 7.09229 11.7863 4.22918 13.7078 2.60192C13.8274 2.5008 13.8457 2.32307 13.7488 2.19945C13.5249 1.91379 13.1911 1.75 12.8334 1.75H1.16672C0.808979 1.75 0.475139 1.91379 0.251275 2.19948C0.154424 2.32307 0.172662 2.5008 0.292291 2.60192Z" fill="#EBF5EE"/>
<path d="M13.8308 3.48373C13.7274 3.43561 13.6058 3.4524 13.5198 3.5259C11.3889 5.33228 8.66939 7.6477 7.81375 8.41871C7.33351 8.85222 6.66701 8.85222 6.18565 8.41813C5.27362 7.5964 2.21966 5.00016 0.480211 3.52587C0.393613 3.45237 0.271715 3.43616 0.169176 3.48371C0.0660898 3.53159 0 3.6347 0 3.74834V11.0833C0 11.7268 0.523223 12.25 1.16668 12.25H12.8334C13.4768 12.25 14 11.7268 14 11.0833V3.74834C14 3.6347 13.9339 3.53131 13.8308 3.48373Z" fill="#EBF5EE"/>
</svg>
