<svg width="40" height="40" viewBox="0 0 40 40" fill="none" xmlns="http://www.w3.org/2000/svg">
    <path d="M37.9453 15.5078C37.1094 14.4609 35.9688 13.8828 34.7344 13.8828H31.9141C31.6485 6.64844 26.4063 0.859375 20 0.859375C13.5938 0.859375 8.35159 6.64844 8.08597 13.8828H5.26566C4.03128 13.8828 2.89066 14.4609 2.05472 15.5078C1.00003 16.8203 0.617218 18.6484 1.01566 20.4062L4.39847 35.3125C4.90628 37.5625 6.65628 39.1406 8.64847 39.1406H31.3438C33.336 39.1406 35.086 37.5703 35.5938 35.3125L38.9844 20.4062C39.3828 18.6484 39 16.8203 37.9453 15.5078ZM20 4.04688C24.6563 4.04688 28.4688 8.40625 28.7188 13.8828H11.2813C11.5313 8.41406 15.3438 4.04688 20 4.04688ZM35.875 19.6953L32.4922 34.6094C32.3203 35.375 31.8282 35.9531 31.3516 35.9531H8.64847C8.17191 35.9531 7.67972 35.375 7.50784 34.6094L4.12503 19.6953C3.94534 18.9062 3.83597 17.0703 5.26566 17.0703H34.7344C36.2735 17.0703 36.0547 18.9062 35.875 19.6953Z" fill="#283044"/>
    <path d="M12.086 20.2422C11.2032 20.2422 10.4922 20.9531 10.4922 21.8359V31.7969C10.4922 32.6797 11.2032 33.3906 12.086 33.3906C12.9688 33.3906 13.6797 32.6797 13.6797 31.7969V21.8359C13.6876 20.9609 12.9688 20.2422 12.086 20.2422Z" fill="#283044"/>
    <path d="M19.8125 20.2422C18.9297 20.2422 18.2188 20.9531 18.2188 21.8359V31.7969C18.2188 32.6797 18.9297 33.3906 19.8125 33.3906C20.6953 33.3906 21.4063 32.6797 21.4063 31.7969V21.8359C21.4063 20.9609 20.6875 20.2422 19.8125 20.2422Z" fill="#283044"/>
    <path d="M27.5312 20.2422C26.6484 20.2422 25.9375 20.9531 25.9375 21.8359V31.7969C25.9375 32.6797 26.6484 33.3906 27.5312 33.3906C28.4141 33.3906 29.125 32.6797 29.125 31.7969V21.8359C29.125 20.9609 28.4141 20.2422 27.5312 20.2422Z" fill="#283044"/>
</svg>
