<svg width="350" height="80" viewBox="0 0 350 80" fill="none" xmlns="http://www.w3.org/2000/svg">
    <rect width="350" height="80" fill="#78A1BB"/>
    <path d="M85.1953 50.0703C85.1953 50.3281 85.0781 50.457 84.8438 50.457C84.7266 50.457 84.6328 50.4141 84.5625 50.3281C84.4922 50.25 84.457 50.0977 84.457 49.8711C84.457 49.6445 84.5117 49.1992 84.6211 48.5352C84.7305 47.8789 84.7852 47.3047 84.7852 46.8125C84.7852 46.3125 84.6562 45.7695 84.3984 45.1836L78.5859 31.8125C78.4141 31.3906 78.1367 31.0508 77.7539 30.793L77.9062 30.5703C78.2734 30.8125 78.6953 30.9336 79.1719 30.9336H83.2617C83.7383 30.9336 84.082 30.7695 84.293 30.4414L84.6328 30.6523C84.5 30.8242 84.4336 30.9922 84.4336 31.1562C84.4336 31.3125 84.5391 31.6719 84.75 32.2344C84.9688 32.7969 85.2539 33.5039 85.6055 34.3555C85.957 35.1992 86.2852 35.9844 86.5898 36.7109C86.9023 37.4375 87.2305 38.1992 87.5742 38.9961C87.918 39.793 88.1094 40.2383 88.1484 40.332C88.1875 40.2383 88.3789 39.793 88.7227 38.9961C89.0664 38.1992 89.3906 37.4375 89.6953 36.7109C90.0078 35.9844 90.3398 35.1953 90.6914 34.3438C91.4727 32.4609 91.8633 31.4141 91.8633 31.2031C91.8633 30.9922 91.8008 30.8086 91.6758 30.6523L92.0039 30.4414C92.2148 30.7695 92.5586 30.9336 93.0352 30.9336H97.1367C97.6211 30.9336 98.0469 30.8125 98.4141 30.5703L98.5547 30.793C98.1719 31.0508 97.8945 31.3906 97.7227 31.8125L91.8281 45.7578C91.7266 45.9922 91.6758 46.5547 91.6758 47.4453C91.6758 48.3359 91.7656 49.3242 91.9453 50.4102C92.1328 51.5039 92.2266 52.3164 92.2266 52.8477C92.2266 53.6055 91.9531 53.9844 91.4062 53.9844C90.8672 53.9844 90.5977 53.6094 90.5977 52.8594C90.5977 52.3516 90.6953 51.5977 90.8906 50.5977C91.0859 49.6055 91.1836 48.6953 91.1836 47.8672C91.1836 47.0391 91.082 46.625 90.8789 46.625H85.207C85.082 46.625 85.0195 46.9141 85.0195 47.4922L85.1953 50.0703ZM106.98 45.0547L106.793 43.6016V43.4727C106.957 43.1836 107.18 43.0391 107.461 43.0391L117.023 43.0508C117.5 43.0508 117.887 42.8984 118.184 42.5938L118.418 42.8281C118.074 43.1719 117.902 43.8281 117.902 44.7969C117.902 44.7969 117.902 45.0234 117.902 45.4766C117.902 46.2656 118.074 46.8398 118.418 47.1992L118.184 47.4336C117.879 47.1289 117.492 46.9766 117.023 46.9766H103.16C102.465 46.9766 101.953 47.1094 101.625 47.375C101.25 47.6875 101.062 48.5703 101.062 50.0234C101.062 50.6094 101.152 51.4727 101.332 52.6133C101.512 53.7617 101.602 54.625 101.602 55.2031C101.602 56.0391 101.305 56.457 100.711 56.457C100.07 56.457 99.75 56.0273 99.75 55.168C99.75 54.582 99.8789 53.7148 100.137 52.5664C100.395 51.418 100.523 50.5469 100.523 49.9531L100.465 46.0273V32.3633C100.465 31.8789 100.316 31.4922 100.02 31.2031L100.254 30.957C100.574 31.2617 100.965 31.4141 101.426 31.4141H116.473C116.949 31.4141 117.34 31.2617 117.645 30.957L117.879 31.2031C117.535 31.5469 117.363 32.1953 117.363 33.1484V33.8047C117.363 34.6406 117.535 35.2266 117.879 35.5625L117.645 35.7852C117.254 35.3867 116.336 35.1875 114.891 35.1875L109.066 35.457C107.629 35.457 106.715 35.2578 106.324 34.8594L106.078 35.0938C106.383 35.3906 106.535 35.7852 106.535 36.2773C106.535 36.7617 106.383 37.1523 106.078 37.4492L106.324 37.6719C106.699 37.2812 107.488 37.0859 108.691 37.0859L113.602 37.3555C114.812 37.3555 115.613 37.1602 116.004 36.7695L116.25 37.0039C115.906 37.3477 115.734 38.0078 115.734 38.9844V39.6406C115.734 40.4453 115.906 41.0273 116.25 41.3867L116.004 41.6328C115.629 41.2422 114.836 41.0469 113.625 41.0469L108.715 41.3047C107.512 41.3047 106.715 41.1094 106.324 40.7188L106.09 40.9531C106.324 41.1875 106.461 41.4688 106.5 41.7969C106.539 42.1172 106.562 42.3477 106.57 42.4883C106.578 42.6211 106.578 42.832 106.57 43.1211C106.562 43.4023 106.559 43.5703 106.559 43.625L106.359 45.0312C106.359 45.3125 106.461 45.4531 106.664 45.4531C106.875 45.4531 106.98 45.3203 106.98 45.0547ZM137.941 43.9062L137.895 45.4297C137.895 46.2812 138.066 46.8789 138.41 47.2227L138.164 47.457C137.867 47.1523 137.477 47 136.992 47H133.582C133.59 47.1094 133.594 47.2539 133.594 47.4336C133.594 47.8711 133.484 48.0898 133.266 48.0898C133.047 48.0898 132.938 47.8438 132.938 47.3516C132.938 47.2031 132.941 47.0859 132.949 47H122.461C122.273 47 122.109 47.3359 121.969 48.0078C121.836 48.6875 121.77 49.2305 121.77 49.6367C121.77 50.043 121.863 50.7695 122.051 51.8164C122.238 52.8711 122.332 53.6914 122.332 54.2773C122.332 54.8711 122.102 55.168 121.641 55.168C121.141 55.168 120.891 54.8633 120.891 54.2539C120.891 53.6445 120.996 52.7969 121.207 51.7109C121.418 50.6328 121.523 49.8203 121.523 49.2734L121.512 32.3398C121.512 31.8633 121.355 31.4727 121.043 31.168L121.289 30.9219C121.609 31.2344 122 31.3906 122.461 31.3906H126.656C127.133 31.3906 127.523 31.2344 127.828 30.9219L128.074 31.168C127.762 31.4727 127.605 31.8633 127.605 32.3398V42.0078C127.605 42.4766 127.453 42.8633 127.148 43.168L127.395 43.4141C127.793 43.0156 128.664 42.8164 130.008 42.8164L135.562 43.0977C136.898 43.0977 137.766 42.8984 138.164 42.5L138.41 42.7344C138.098 43.0391 137.941 43.4297 137.941 43.9062ZM133.664 52.2031C133.664 52.5234 133.531 52.6836 133.266 52.6836C133 52.6836 132.867 52.4922 132.867 52.1094C132.867 51.7734 132.93 51.3594 133.055 50.8672C133.188 50.3828 133.258 50.1211 133.266 50.082C133.281 50.1602 133.32 50.3203 133.383 50.5625C133.445 50.8047 133.492 50.9922 133.523 51.125C133.617 51.5234 133.664 51.8828 133.664 52.2031ZM150.949 48.8984L151.031 47.7734C151.031 47.5781 150.938 47.4258 150.75 47.3164C150.562 47.2148 150.359 47.1641 150.141 47.1641C149.922 47.1641 149.727 47.2227 149.555 47.3398C149.383 47.457 149.297 47.625 149.297 47.8438V50.5391C149.297 50.9297 149.379 51.5039 149.543 52.2617C149.707 53.0195 149.789 53.5586 149.789 53.8789C149.789 54.207 149.719 54.4766 149.578 54.6875C149.438 54.8984 149.242 55.0039 148.992 55.0039C148.75 55.0039 148.566 54.8945 148.441 54.6758C148.316 54.457 148.254 54.1719 148.254 53.8203C148.254 53.4688 148.344 52.8594 148.523 51.9922C148.703 51.125 148.793 50.4531 148.793 49.9766C148.793 48.0469 148.434 47.082 147.715 47.082C146.746 47.082 146.262 47.043 146.262 46.9648V46.9883C146.262 47.5273 146.379 48.3164 146.613 49.3555C146.855 50.4023 146.977 51.1523 146.977 51.6055C146.977 52.0586 146.895 52.4297 146.73 52.7188C146.566 53.0156 146.312 53.1641 145.969 53.1641C145.633 53.1641 145.367 53.0234 145.172 52.7422C144.984 52.4609 144.891 52.0938 144.891 51.6406C144.891 51.1953 145.004 50.4258 145.23 49.332C145.457 48.2461 145.57 47.4219 145.57 46.8594C143.719 46.2734 142.324 45.3164 141.387 43.9883C140.457 42.6602 139.992 41.0195 139.992 39.0664C139.992 35.0195 142.031 32.4648 146.109 31.4023C147.43 31.0586 148.793 30.8867 150.199 30.8867C151.613 30.8867 152.812 30.9648 153.797 31.1211C154.789 31.2773 155.746 31.5547 156.668 31.9531C157.598 32.3438 158.387 32.8438 159.035 33.4531C159.691 34.0547 160.215 34.8359 160.605 35.7969C160.996 36.75 161.191 37.8398 161.191 39.0664C161.191 41.5664 160.488 43.5039 159.082 44.8789C157.676 46.2461 155.699 47.0859 153.152 47.3984C153.121 47.4531 153.105 47.5391 153.105 47.6562L153.164 48.3008C153.164 48.6992 153.055 48.8984 152.836 48.8984C152.617 48.8984 152.508 48.707 152.508 48.3242L152.543 47.668C152.543 47.4336 152.375 47.3164 152.039 47.3164C152.008 47.3867 151.992 47.5195 151.992 47.7148L152.051 48.8516C152.051 49.0859 152.008 49.3125 151.922 49.5312C151.836 49.75 151.691 49.8594 151.488 49.8594C151.129 49.8594 150.949 49.5391 150.949 48.8984ZM146.52 39.0781C146.52 41.9375 147.879 43.3672 150.598 43.3672C153.316 43.3672 154.676 41.9375 154.676 39.0781C154.676 37.7656 154.324 36.7617 153.621 36.0664C152.918 35.3711 151.91 35.0234 150.598 35.0234C149.285 35.0234 148.277 35.3711 147.574 36.0664C146.871 36.7617 146.52 37.7656 146.52 39.0781ZM217.242 34.4258L217.301 32.9258C217.301 32.0664 217.133 31.4727 216.797 31.1445L217.031 30.9102C217.344 31.2148 217.73 31.3672 218.191 31.3672H233.578C234.055 31.3672 234.445 31.2148 234.75 30.9102L234.984 31.1445C234.688 31.4414 234.539 31.832 234.539 32.3164L234.48 33.8164C234.48 34.6602 234.648 35.25 234.984 35.5859L234.75 35.832C234.398 35.4727 233.828 35.293 233.039 35.293L230.449 35.457C229.629 35.457 229.039 35.2773 228.68 34.918L228.434 35.1523C228.738 35.4492 228.891 35.8398 228.891 36.3242V46.0508C228.891 46.8633 228.961 48.0742 229.102 49.6836C229.25 51.293 229.324 52.3516 229.324 52.8594C229.324 53.75 229.164 54.1953 228.844 54.1953C228.523 54.1953 228.363 53.8789 228.363 53.2461C228.363 52.6133 228.414 51.7539 228.516 50.668C228.625 49.5898 228.68 48.7773 228.68 48.2305C228.68 47.3789 228.512 46.9531 228.176 46.9531C228.012 46.9531 227.883 47.0508 227.789 47.2461C227.695 47.4414 227.648 47.6328 227.648 47.8203L227.918 50.2695C227.918 50.832 227.758 51.1133 227.438 51.1133C227.273 51.1133 227.152 51.0312 227.074 50.8672C226.996 50.7031 226.957 50.5117 226.957 50.293C226.957 50.0742 227.027 49.7148 227.168 49.2148C227.309 48.7227 227.379 48.3203 227.379 48.0078C227.379 47.6953 227.242 47.457 226.969 47.293C226.703 47.1289 226.363 47.0469 225.949 47.0469C225.543 47.0469 225.117 47.1289 224.672 47.293C224.234 47.457 223.848 47.7109 223.512 48.0547C223.176 48.4062 223.008 48.75 223.008 49.0859C223.008 49.4297 223.059 49.8438 223.16 50.3281C223.27 50.8125 223.324 51.2148 223.324 51.5352C223.324 51.8633 223.18 52.0273 222.891 52.0273C222.562 52.0273 222.398 51.8516 222.398 51.5C222.398 51.1562 222.461 50.7188 222.586 50.1875C222.711 49.6562 222.773 49.2578 222.773 48.9922V45.9453C222.789 41.6641 222.797 38.457 222.797 36.3242C222.797 35.832 222.945 35.4414 223.242 35.1523L223.008 34.918C222.664 35.2695 222.094 35.4453 221.297 35.4453L218.777 35.293C217.973 35.293 217.391 35.4727 217.031 35.832L216.797 35.5859C217.094 35.2891 217.242 34.9023 217.242 34.4258ZM227.344 52.8828C227.531 53.7422 227.625 54.4883 227.625 55.1211C227.625 55.3945 227.527 55.5312 227.332 55.5312C227.137 55.5312 227.039 55.4062 227.039 55.1562C227.039 54.4531 227.141 53.6953 227.344 52.8828ZM256.43 50.8438L256.688 48.418C256.688 47.4336 256.285 46.6836 255.48 46.168C254.684 45.6445 253.844 45.4141 252.961 45.4766C252.078 45.5312 251.461 45.8281 251.109 46.3672C250.93 46.625 250.84 46.9297 250.84 47.2812L250.781 50.4219C250.781 50.8516 250.848 51.4883 250.98 52.332C251.113 53.1836 251.18 53.8242 251.18 54.2539C251.18 55.0117 250.965 55.3906 250.535 55.3906C250.105 55.3906 249.891 55.0234 249.891 54.2891C249.891 53.8047 249.961 53.1094 250.102 52.2031C250.242 51.2969 250.32 50.6094 250.336 50.1406C250.359 49.6719 250.371 48.6719 250.371 47.1406C250.371 46.7344 250.246 46.2656 249.996 45.7344C249.746 45.2031 249.352 44.4727 248.812 43.543C248.273 42.6133 247.832 41.793 247.488 41.082L247.137 40.8828C246.949 41.2266 246.617 41.3984 246.141 41.3984L245.156 41.4336C244.484 41.4336 243.98 41.2695 243.645 40.9414L243.398 41.1758C243.422 41.4648 243.434 42.082 243.434 43.0273L243.422 45.8984C243.422 46.7578 243.438 47.3906 243.469 47.7969L243.691 49.5195C243.691 49.8398 243.582 50 243.363 50C243.145 50 243.035 49.8516 243.035 49.5547L243.223 48.1016C243.223 47.75 243.117 47.4688 242.906 47.2578C242.703 47.0547 242.434 46.9531 242.098 46.9531C241.77 46.9531 241.477 47.0977 241.219 47.3867C240.969 47.6836 240.844 48.0664 240.844 48.5352C240.844 49.0039 240.93 49.6367 241.102 50.4336C241.273 51.2383 241.359 51.8164 241.359 52.168C241.359 52.9023 241.098 53.2695 240.574 53.2695C240.051 53.2695 239.789 52.9102 239.789 52.1914C239.789 51.8555 239.863 51.2695 240.012 50.4336C240.168 49.5977 240.246 48.9336 240.246 48.4414C240.246 47.9492 240.133 47.543 239.906 47.2227C239.68 46.9102 239.422 46.7539 239.133 46.7539C238.844 46.7539 238.598 46.8516 238.395 47.0469C238.191 47.25 238.09 47.5 238.09 47.7969L238.406 50.5742C238.406 51.0508 238.23 51.2891 237.879 51.2891C237.527 51.2891 237.352 51.0469 237.352 50.5625C237.352 50.2812 237.426 49.7891 237.574 49.0859C237.723 48.3906 237.793 47.8477 237.785 47.457C237.777 47.0664 237.773 42.0117 237.773 32.293C237.773 31.8086 237.625 31.4219 237.328 31.1328L237.562 30.8984C237.867 31.1953 238.254 31.3438 238.723 31.3438H249.223C250.863 31.3438 251.965 31.3945 252.527 31.4961C253.098 31.5898 253.594 31.6914 254.016 31.8008C254.445 31.9102 254.805 32.0469 255.094 32.2109C255.391 32.3672 255.688 32.5664 255.984 32.8086C256.289 33.043 256.531 33.3125 256.711 33.6172C257.125 34.3125 257.332 35.0508 257.332 35.832C257.332 36.6133 257.27 37.2539 257.145 37.7539C257.027 38.2461 256.828 38.7109 256.547 39.1484C255.938 40.0938 254.867 40.5664 253.336 40.5664L253.242 40.8359C253.734 41.0312 254.062 41.3008 254.227 41.6445C254.914 43.1445 255.422 44.0977 255.75 44.5039C256.078 44.9023 256.383 45.2227 256.664 45.4648C256.945 45.707 257.348 45.9531 257.871 46.2031C258.395 46.4531 258.711 46.6172 258.82 46.6953C258.93 46.7656 258.984 46.8242 258.984 46.8711C258.984 47.6523 259.09 48.6562 259.301 49.8828C259.512 51.1094 259.617 51.8984 259.617 52.25C259.617 52.6016 259.602 52.8555 259.57 53.0117C259.547 53.168 259.488 53.3203 259.395 53.4688C259.301 53.625 259.164 53.7031 258.984 53.7031C258.805 53.7031 258.668 53.5742 258.574 53.3164C258.488 53.0586 258.445 52.7422 258.445 52.3672C258.445 51.9922 258.496 51.3203 258.598 50.3516C258.699 49.3906 258.75 48.6641 258.75 48.1719C258.75 47.1953 258.434 46.707 257.801 46.707C257.488 46.707 257.254 46.7617 257.098 46.8711C256.949 46.9805 256.875 47.2031 256.875 47.5391C256.875 47.8828 256.945 48.4258 257.086 49.168C257.227 49.9102 257.297 50.4688 257.297 50.8438C257.297 51.2266 257.152 51.418 256.863 51.418C256.574 51.418 256.43 51.2266 256.43 50.8438ZM248.625 35.2344L245.859 35.3164C244.727 35.3164 243.988 35.1484 243.645 34.8125L243.398 35.0352C243.711 35.3398 243.867 35.7305 243.867 36.207V36.9922C243.867 37.4609 243.711 37.8516 243.398 38.1641L243.645 38.3984C243.98 38.0547 244.676 37.8828 245.73 37.8828L248.695 37.9883C249.484 37.9883 250.094 37.8867 250.523 37.6836C250.961 37.4727 251.18 37.0898 251.18 36.5352C251.18 36.1836 251.059 35.9102 250.816 35.7148C250.574 35.5117 250.281 35.3828 249.938 35.3281C249.594 35.2656 249.156 35.2344 248.625 35.2344ZM268.371 45.0547L268.184 43.6016V43.4727C268.348 43.1836 268.57 43.0391 268.852 43.0391L278.414 43.0508C278.891 43.0508 279.277 42.8984 279.574 42.5938L279.809 42.8281C279.465 43.1719 279.293 43.8281 279.293 44.7969C279.293 44.7969 279.293 45.0234 279.293 45.4766C279.293 46.2656 279.465 46.8398 279.809 47.1992L279.574 47.4336C279.27 47.1289 278.883 46.9766 278.414 46.9766H264.551C263.855 46.9766 263.344 47.1094 263.016 47.375C262.641 47.6875 262.453 48.5703 262.453 50.0234C262.453 50.6094 262.543 51.4727 262.723 52.6133C262.902 53.7617 262.992 54.625 262.992 55.2031C262.992 56.0391 262.695 56.457 262.102 56.457C261.461 56.457 261.141 56.0273 261.141 55.168C261.141 54.582 261.27 53.7148 261.527 52.5664C261.785 51.418 261.914 50.5469 261.914 49.9531L261.855 46.0273V32.3633C261.855 31.8789 261.707 31.4922 261.41 31.2031L261.645 30.957C261.965 31.2617 262.355 31.4141 262.816 31.4141H277.863C278.34 31.4141 278.73 31.2617 279.035 30.957L279.27 31.2031C278.926 31.5469 278.754 32.1953 278.754 33.1484V33.8047C278.754 34.6406 278.926 35.2266 279.27 35.5625L279.035 35.7852C278.645 35.3867 277.727 35.1875 276.281 35.1875L270.457 35.457C269.02 35.457 268.105 35.2578 267.715 34.8594L267.469 35.0938C267.773 35.3906 267.926 35.7852 267.926 36.2773C267.926 36.7617 267.773 37.1523 267.469 37.4492L267.715 37.6719C268.09 37.2812 268.879 37.0859 270.082 37.0859L274.992 37.3555C276.203 37.3555 277.004 37.1602 277.395 36.7695L277.641 37.0039C277.297 37.3477 277.125 38.0078 277.125 38.9844V39.6406C277.125 40.4453 277.297 41.0273 277.641 41.3867L277.395 41.6328C277.02 41.2422 276.227 41.0469 275.016 41.0469L270.105 41.3047C268.902 41.3047 268.105 41.1094 267.715 40.7188L267.48 40.9531C267.715 41.1875 267.852 41.4688 267.891 41.7969C267.93 42.1172 267.953 42.3477 267.961 42.4883C267.969 42.6211 267.969 42.832 267.961 43.1211C267.953 43.4023 267.949 43.5703 267.949 43.625L267.75 45.0312C267.75 45.3125 267.852 45.4531 268.055 45.4531C268.266 45.4531 268.371 45.3203 268.371 45.0547ZM282.855 49.1328L282.926 47.5039V32.3398C282.926 31.8555 282.773 31.4648 282.469 31.168L282.703 30.9219C283.031 31.2344 283.422 31.3906 283.875 31.3906H291.387C291.863 31.3906 292.215 31.2227 292.441 30.8867L292.746 31.1094C292.605 31.2891 292.535 31.5469 292.535 31.8828C292.535 32.2188 292.66 32.7188 292.91 33.3828C293.16 34.0391 293.434 34.6641 293.73 35.2578C294.535 36.8516 294.938 38.1484 294.938 39.1484H295.102C295.102 38.1094 295.5 36.8086 296.297 35.2461C297.094 33.6992 297.492 32.5352 297.492 31.7539C297.492 31.5195 297.418 31.3047 297.27 31.1094L297.586 30.8867C297.812 31.2227 298.164 31.3906 298.641 31.3906H306.152C306.621 31.3906 307.012 31.2344 307.324 30.9219L307.559 31.168C307.254 31.4727 307.102 31.8633 307.102 32.3398V46.0508C307.102 46.6211 307.098 47.0117 307.09 47.2227L306.855 47.457C306.699 47.1523 306.465 47 306.152 47H302.227C301.836 47 301.641 47.8086 301.641 49.4258C301.641 49.707 301.695 50.1172 301.805 50.6562C301.922 51.2031 301.98 51.6055 301.98 51.8633C301.98 52.1211 301.93 52.3164 301.828 52.4492C301.734 52.582 301.617 52.6484 301.477 52.6484C301.336 52.6484 301.211 52.5781 301.102 52.4375C301 52.3047 300.949 52.1172 300.949 51.875C300.949 51.6328 300.996 51.2422 301.09 50.7031C301.191 50.1719 301.242 49.7812 301.242 49.5312L301.277 46.0508V36.9688C301.277 36.4766 301.316 36.0078 301.395 35.5625L301.312 35.5508C301.156 36.3164 300.742 37.5156 300.07 39.1484C299.398 40.7812 298.777 42.3164 298.207 43.7539C297.637 45.1914 297.352 46.1602 297.352 46.6602L297.398 49.3203C297.406 49.7891 297.5 50.4922 297.68 51.4297C297.859 52.375 297.949 53.0508 297.949 53.457C297.949 53.8711 297.883 54.1758 297.75 54.3711C297.617 54.5742 297.465 54.6758 297.293 54.6758C297.129 54.6758 296.988 54.582 296.871 54.3945C296.762 54.2148 296.707 53.9102 296.707 53.4805C296.707 53.0508 296.762 52.3438 296.871 51.3594C296.98 50.375 297.035 49.6602 297.035 49.2148C297.035 48.7773 297.012 48.4102 296.965 48.1133C296.918 47.8242 296.859 47.582 296.789 47.3867C296.727 47.1992 296.633 47.0391 296.508 46.9062C296.383 46.7656 296.266 46.6602 296.156 46.5898C296.047 46.5195 295.906 46.4648 295.734 46.4258C294.844 46.2227 294.102 46.3164 293.508 46.707C293.141 46.9492 292.957 47.25 292.957 47.6094L293.098 48.8867C293.098 49.1758 292.992 49.3203 292.781 49.3203C292.57 49.3203 292.465 49.1641 292.465 48.8516L292.664 46.6602C292.664 46.1367 292.375 45.168 291.797 43.7539C291.227 42.332 290.605 40.8125 289.934 39.1953C289.262 37.5781 288.852 36.3633 288.703 35.5508L288.633 35.5625C288.711 36.0078 288.75 36.4766 288.75 36.9688V48.5469C288.75 48.6797 288.809 49.207 288.926 50.1289C289.051 51.0508 289.113 51.7031 289.113 52.0859C289.113 52.4688 289.031 52.7617 288.867 52.9648C288.711 53.1758 288.527 53.2812 288.316 53.2812C288.105 53.2812 287.922 53.1836 287.766 52.9883C287.617 52.793 287.543 52.5234 287.543 52.1797C287.543 51.8438 287.602 51.2461 287.719 50.3867C287.844 49.5352 287.906 48.9453 287.906 48.6172L287.918 48.2773C287.918 48.0742 287.867 47.9258 287.766 47.832C287.562 47.6367 286.773 47.5391 285.398 47.5391C284.031 47.5391 283.348 47.5469 283.348 47.5625L283.383 49.1094C283.383 49.2891 283.293 49.3789 283.113 49.3789C282.941 49.3789 282.855 49.2969 282.855 49.1328ZM317.566 45.0547L317.379 43.6016V43.4727C317.543 43.1836 317.766 43.0391 318.047 43.0391L327.609 43.0508C328.086 43.0508 328.473 42.8984 328.77 42.5938L329.004 42.8281C328.66 43.1719 328.488 43.8281 328.488 44.7969C328.488 44.7969 328.488 45.0234 328.488 45.4766C328.488 46.2656 328.66 46.8398 329.004 47.1992L328.77 47.4336C328.465 47.1289 328.078 46.9766 327.609 46.9766H313.746C313.051 46.9766 312.539 47.1094 312.211 47.375C311.836 47.6875 311.648 48.5703 311.648 50.0234C311.648 50.6094 311.738 51.4727 311.918 52.6133C312.098 53.7617 312.188 54.625 312.188 55.2031C312.188 56.0391 311.891 56.457 311.297 56.457C310.656 56.457 310.336 56.0273 310.336 55.168C310.336 54.582 310.465 53.7148 310.723 52.5664C310.98 51.418 311.109 50.5469 311.109 49.9531L311.051 46.0273V32.3633C311.051 31.8789 310.902 31.4922 310.605 31.2031L310.84 30.957C311.16 31.2617 311.551 31.4141 312.012 31.4141H327.059C327.535 31.4141 327.926 31.2617 328.23 30.957L328.465 31.2031C328.121 31.5469 327.949 32.1953 327.949 33.1484V33.8047C327.949 34.6406 328.121 35.2266 328.465 35.5625L328.23 35.7852C327.84 35.3867 326.922 35.1875 325.477 35.1875L319.652 35.457C318.215 35.457 317.301 35.2578 316.91 34.8594L316.664 35.0938C316.969 35.3906 317.121 35.7852 317.121 36.2773C317.121 36.7617 316.969 37.1523 316.664 37.4492L316.91 37.6719C317.285 37.2812 318.074 37.0859 319.277 37.0859L324.188 37.3555C325.398 37.3555 326.199 37.1602 326.59 36.7695L326.836 37.0039C326.492 37.3477 326.32 38.0078 326.32 38.9844V39.6406C326.32 40.4453 326.492 41.0273 326.836 41.3867L326.59 41.6328C326.215 41.2422 325.422 41.0469 324.211 41.0469L319.301 41.3047C318.098 41.3047 317.301 41.1094 316.91 40.7188L316.676 40.9531C316.91 41.1875 317.047 41.4688 317.086 41.7969C317.125 42.1172 317.148 42.3477 317.156 42.4883C317.164 42.6211 317.164 42.832 317.156 43.1211C317.148 43.4023 317.145 43.5703 317.145 43.625L316.945 45.0312C316.945 45.3125 317.047 45.4531 317.25 45.4531C317.461 45.4531 317.566 45.3203 317.566 45.0547Z" fill="#EBF5EE"/>
    <path d="M182.671 59.791C182.249 59.0176 181.511 58.6309 180.456 58.6309H168.011C166.956 58.6309 165.954 58.8506 165.005 59.29L164.794 58.8945C165.796 58.4023 166.613 57.7607 167.246 56.9697L179.981 41.5977C180.667 40.7891 181.484 40.3848 182.434 40.3848V39.5674C181.502 39.5674 180.711 39.1367 180.061 38.2754L169.725 25.0391C169.074 24.1953 168.283 23.5449 167.352 23.0879L167.562 22.666C168.477 23.123 169.47 23.3516 170.542 23.3516L182.302 23.4043C183.374 23.4043 184.104 23.0088 184.49 22.2178L185.334 22.6396C185.158 23.0439 185.062 23.4131 185.044 23.7471C185.044 24.0811 185.272 24.5381 185.729 25.1182L188.788 29.0732C189.421 29.8818 189.737 30.8047 189.737 31.8418H190.396C190.396 30.8223 190.722 29.8994 191.372 29.0732L194.431 25.1182C194.853 24.5557 195.063 24.0986 195.063 23.7471C195.063 23.3779 194.984 23.0088 194.826 22.6396L195.67 22.2178C196.057 23.0088 196.786 23.4043 197.858 23.4043L209.328 23.3516C210.383 23.3516 211.385 23.1318 212.334 22.6924L212.519 23.0879C211.587 23.5449 210.787 24.1865 210.119 25.0127L199.282 38.3018C198.614 39.1279 197.806 39.541 196.856 39.541V40.3848C197.806 40.3848 198.605 40.7979 199.256 41.624L211.358 56.9697C211.974 57.7607 212.773 58.4023 213.758 58.8945L213.547 59.3164C212.633 58.8594 211.64 58.6309 210.567 58.6309H198.386C197.612 58.6309 197.006 58.8857 196.566 59.3955C196.127 59.9053 195.907 60.8193 195.907 62.1377C195.907 63.4736 196.092 65.7676 196.461 69.0195C196.83 72.2715 197.015 74.4336 197.015 75.5059C197.015 76.5957 196.804 77.3779 196.382 77.8525C195.978 78.3271 195.503 78.5645 194.958 78.5645C194.431 78.5645 193.974 78.3535 193.587 77.9316C193.218 77.5273 193.033 76.8066 193.033 75.7695C193.033 74.75 193.332 72.5088 193.93 69.0459C194.545 65.583 194.853 63.2012 194.853 61.9004L194.879 56.8906L190.687 50.9316C190.054 50 189.737 49.0684 189.737 48.1367H189.078C189.078 49.1387 188.771 50.0703 188.155 50.9316L183.857 56.8906C183.453 57.4707 183.251 57.9277 183.251 58.2617C183.251 58.5957 183.348 58.9561 183.541 59.3428L182.671 59.791Z" fill="#283044"/>
    <path d="M66.0265 24.3624C65.8848 24.0745 65.8053 23.7557 65.7857 23.4464C65.7613 23.0615 65.793 22.6804 65.5628 22.3382C65.522 22.2777 65.5461 22.1914 65.5917 22.1092C65.6748 21.9595 65.7068 21.8009 65.6446 21.6173C65.5419 21.3148 65.5924 20.9902 65.5583 20.6783C65.5201 20.3288 65.6205 19.9473 65.3655 19.6348C65.3347 19.597 65.3365 19.5344 65.3118 19.4896C65.1163 19.1337 65.053 18.7307 64.8532 18.3644C64.5952 17.8916 64.2326 17.569 63.8261 17.263C63.7832 17.2307 63.7595 17.1807 63.7259 17.1545C63.4175 16.914 63.2834 16.4124 62.7542 16.4958C62.7265 16.5002 62.6913 16.459 62.6599 16.4386C62.282 16.192 61.9333 15.9078 61.642 15.564C61.2571 15.1097 61.1349 14.73 61.5687 14.1625C61.6615 14.041 61.8226 13.9678 61.8424 13.7915C61.8671 13.5723 61.9683 13.3785 62.0497 13.1782C62.1119 13.0251 62.1641 12.8672 62.1695 12.702C62.1914 12.0387 62.1297 11.372 62.2713 10.7137C62.3362 10.4122 62.2637 10.0885 62.4399 9.80146C62.5199 9.67116 62.4772 9.51876 62.3773 9.40336C62.2804 9.29145 62.1781 9.17904 62.0597 9.09201C61.8169 8.9135 61.656 8.66508 61.5645 8.39989C61.4801 8.15519 61.3469 7.97095 61.1491 7.839C60.9037 7.67518 60.719 7.37973 60.3626 7.42967C60.2309 7.44813 60.1379 7.40076 60.0568 7.29867C59.915 7.11996 59.7548 6.9154 59.5474 6.86293C59.1976 6.77441 58.8392 6.68059 58.4655 6.7107C58.2814 6.72553 58.1648 6.87427 57.9918 6.904C57.6784 6.95787 57.3604 6.99954 57.056 7.08695C56.856 7.14441 56.6034 7.09569 56.4641 7.30256C56.3165 7.52183 56.1773 7.73051 55.9108 7.83755C55.4997 8.00267 55.3015 8.40895 55.0038 8.70309C54.8582 8.84699 54.8156 9.03902 54.8008 9.23726C54.7847 9.4519 54.9069 9.70831 54.6173 9.84124C54.6017 9.84837 54.5948 9.87933 54.5884 9.90059C54.5438 10.0504 54.4961 10.1996 54.4576 10.351C54.3675 10.7046 54.4093 10.8248 54.7283 10.9922C54.8603 11.0614 54.9009 11.1217 54.8563 11.2654C54.7821 11.5044 54.8104 11.7209 55.0383 11.8795C55.1398 11.9501 55.1992 12.0636 55.2034 12.1845C55.217 12.5845 55.5692 12.9104 55.4518 13.3372C55.4501 13.3434 55.4539 13.3524 55.4575 13.3586C55.5953 13.5967 55.6331 13.8439 55.6496 14.1262C55.6855 14.7413 55.8631 15.3343 56.1303 15.899C56.2275 16.1044 56.2492 16.3501 56.4153 16.52C56.576 16.6842 56.5382 16.787 56.3501 16.8775C56.3035 16.9 56.2644 16.9377 56.2199 16.9652C55.3204 17.5203 54.6453 18.2503 54.3374 19.2912C54.1469 19.9352 53.8482 20.5406 53.5936 21.1614C53.4388 21.5388 53.469 21.7402 53.739 22.0375C53.9594 22.2802 54.2462 22.4304 54.5012 22.6243C54.6732 22.755 54.7557 22.916 54.7037 23.1242C54.5529 23.7282 54.5276 24.3456 54.4797 24.962C54.4606 25.2081 54.5017 25.5022 54.2844 25.6775C53.8857 25.9992 53.6697 26.4554 53.3641 26.8445C53.0709 27.2179 52.783 27.5892 52.4175 27.9026C52.1008 28.1742 51.7569 28.4105 51.4503 28.6972C51.1762 28.9534 50.8639 29.198 50.4648 29.2375C49.9323 29.2902 49.4051 29.4267 48.8662 29.3769C48.5063 29.3437 48.2736 29.4657 48.1737 29.8216C48.1609 29.8673 48.12 29.91 48.0824 29.9429C47.8373 30.1571 47.7586 30.4294 47.8374 30.7344C47.8888 30.9336 47.9017 31.1441 48.007 31.3355C47.7787 31.4182 47.5465 31.4222 47.3198 31.4481C46.6441 31.5252 45.9646 31.5723 45.2936 31.6868C45.0046 31.7361 44.7181 31.8121 44.5239 32.0585C44.435 32.1715 44.3379 32.271 44.2246 32.3589C44.0705 32.4785 43.9713 32.9657 44.0811 33.0992C44.2556 33.3112 44.2985 33.5719 44.4133 33.8622C44.0112 33.7543 43.6748 33.9464 43.3116 33.9283C42.6544 33.8956 41.9978 33.8489 41.3403 33.8204C40.9831 33.8049 40.6023 33.8352 40.2744 33.6164C40.1992 33.5662 40.0825 33.5682 40.0179 33.6332C39.7313 33.922 39.4415 33.7631 39.1524 33.6526C38.957 33.578 38.7683 33.4855 38.5718 33.4142C38.2599 33.3012 38.2433 33.2792 38.2979 32.9593C38.4385 32.1347 38.4455 31.3041 38.3182 30.4818C38.0039 28.4513 37.1083 26.7362 35.5262 25.3895C33.926 24.0275 32.0567 23.3955 29.989 23.3158C29.0142 23.2782 28.0485 23.43 27.1135 23.7139C24.7055 24.4452 22.7844 25.8399 21.4158 27.9657C20.2842 29.7233 19.7523 31.6365 19.9316 33.7349C20.0104 34.6575 20.223 35.5443 20.5987 36.3884C21.0358 37.3703 21.6277 38.2427 22.4146 38.9877C23.0907 39.6277 23.834 40.167 24.6728 40.5567C25.3131 40.8541 25.9873 41.0656 26.6915 41.1918C27.7722 41.3856 28.8523 41.4099 29.93 41.2392C31.2324 41.0328 32.4528 40.5765 33.5824 39.8918C35.2397 38.8871 36.5279 37.5332 37.3994 35.7972C37.5023 35.5922 37.6418 35.5123 37.8477 35.4994C38.3984 35.465 38.9224 35.333 39.4171 35.0845C39.5323 35.0266 39.6674 35.0061 39.776 35.0868C39.9308 35.2018 40.0949 35.246 40.2812 35.2153C40.3662 35.2013 40.4167 35.2115 40.3818 35.3148C40.1361 36.0413 39.9512 36.785 39.6526 37.4976C39.111 38.7902 38.623 40.1053 38.1144 41.4118C37.6623 42.573 37.2137 43.7357 36.7609 44.8967C36.656 45.1658 36.5697 45.1656 36.3183 45.0029C36.1001 44.8618 35.9614 44.6027 35.6849 44.5571C35.4719 44.522 35.2543 44.501 35.0385 44.4987C34.6213 44.4945 34.2894 44.2935 34.0158 44.0195C33.7485 43.7518 33.4469 43.551 33.0951 43.4562C32.8933 43.4019 32.6581 43.2973 32.4459 43.4231C31.8841 43.7562 31.8126 44.0147 32.094 44.6102C32.1227 44.671 32.1462 44.7376 32.1883 44.7881C32.4468 45.0988 32.4882 45.3869 32.2084 45.7314C32.0248 45.9573 31.9469 46.2578 32.1477 46.5435C32.332 46.8057 32.3936 47.1168 32.5013 47.4098C32.8306 48.3061 33.1651 49.2006 33.4912 50.098C33.584 50.3535 33.4968 50.5292 33.2387 50.6151C33.1202 50.6545 33.0339 50.7236 32.938 50.7971C32.7727 50.9238 32.6843 51.0996 32.5624 51.2557C32.2808 51.6163 32.2566 52.0373 32.2551 52.4471C32.2528 53.0534 32.5496 53.6237 32.5279 54.2394C32.5213 54.4272 32.6724 54.6138 32.6028 54.7831C32.4651 55.1179 32.4462 55.4052 32.8075 55.6615C32.0231 55.9387 31.3169 56.2362 30.6619 56.6478C29.7626 57.2128 28.9534 57.8793 28.2924 58.7153C27.8079 59.3279 27.4418 60.0124 27.1066 60.7136C26.5743 61.8274 26.3059 63.0043 26.276 64.2377C26.2663 64.6361 26.3079 65.0306 26.3748 65.4204C26.4995 66.1476 26.7954 66.8102 26.9978 67.5318C28.099 71.4561 33.3371 72.4815 33.7357 72.5267C34.914 72.6603 36.0639 72.5157 37.1847 72.1559C37.9273 71.9174 38.6286 71.572 39.2751 71.1354C40.062 70.6038 40.8 70.0133 41.3977 69.2606C41.9577 68.5554 42.4291 67.8014 42.7785 66.9709C43.4392 65.4007 43.6404 63.7678 43.3475 62.0964C43.1002 60.6849 42.5053 59.4123 41.5772 58.3085C41.4782 58.1908 41.4496 58.0783 41.4978 57.9396C41.5538 57.7784 41.6206 57.6203 41.6661 57.4562C41.7695 57.083 41.9071 56.7063 41.609 56.3502C41.548 56.2773 41.5533 56.1844 41.5957 56.0972C41.6402 56.0056 41.689 55.9586 41.7619 56.0749C41.8131 56.1565 41.8708 56.2343 41.9184 56.318C42.075 56.5929 42.2555 56.8373 42.5325 57.0148C42.7025 57.1238 42.8164 57.3291 43.0669 57.2324C43.078 57.2281 43.1003 57.2584 43.1195 57.2686C43.383 57.4084 43.5568 57.3219 43.6321 57.0314C43.7333 56.6408 43.6396 56.2457 43.675 55.8511C43.7289 55.2485 43.7658 54.644 43.8908 54.0522C44.1093 53.0173 44.3496 51.987 44.5807 50.9548C44.6119 50.8153 44.6711 50.6917 44.7552 50.5734C45.0525 50.1556 45.3561 49.747 45.5936 49.2836C46.2003 48.0996 46.5972 46.8433 46.9554 45.5719C47.0069 45.3889 47.0942 45.2718 47.237 45.1662C47.634 44.8729 48.0282 44.5758 48.3964 44.2456C48.989 43.7142 49.526 43.1333 49.9872 42.4835C50.0982 42.3272 50.2223 42.1849 50.4427 42.2477C50.8258 42.3568 51.187 42.4978 51.4022 42.8729C51.5546 43.1387 51.6936 43.4297 51.9368 43.6166C52.4013 43.9734 52.7111 44.0798 53.0864 43.6682C53.5372 43.1738 54.1548 42.8778 54.6323 42.4114C54.7424 42.3039 54.8586 42.2731 55.0077 42.3767C55.161 42.4832 55.3485 42.5035 55.5244 42.4257C55.8798 42.2685 56.2636 42.1939 56.6198 42.0426C57.3408 41.7363 58.0623 41.4307 58.7763 41.1087C59.7626 40.6637 60.7996 40.3349 61.75 39.8084C61.8347 39.7614 61.9352 39.726 61.9966 39.657C62.2706 39.3492 62.5886 39.0832 62.8437 38.7575C63.0361 38.512 63.236 38.2793 63.5006 38.0974C63.746 37.9287 64.0199 37.7526 63.9848 37.3755C63.9792 37.315 64.0462 37.2419 64.0912 37.1835C64.1911 37.0541 64.3077 36.9367 64.4005 36.8027C64.5785 36.5459 64.7791 36.2967 64.8151 35.9697C64.868 35.4878 64.9418 35.0132 65.1724 34.5757C65.3322 34.2723 65.2618 33.9105 65.4033 33.6C65.4747 33.4433 65.4605 33.2847 65.4263 33.1184C65.3998 32.9899 65.344 32.8608 65.3804 32.7231C65.4487 32.4654 65.5642 32.2091 65.574 31.949C65.6042 31.1477 65.7292 30.3341 65.3813 29.5606C65.2603 29.2916 65.214 28.9901 65.2638 28.7143C65.3287 28.3542 65.3387 28.0031 65.2921 27.6477C65.2161 27.0677 64.922 26.4911 65.2815 25.908C65.2949 25.8863 65.28 25.849 65.2865 25.8209C65.3737 25.445 65.3801 25.0403 65.8767 24.8967C66.1357 24.8219 66.1521 24.6176 66.0265 24.3624ZM35.9607 30.8183C35.9833 30.9105 35.9925 31.0032 35.9976 31.096L29.8812 32.1745C29.8779 32.1682 29.8749 32.1616 29.8717 32.1551L35.7517 30.015C35.8286 30.2802 35.8949 30.5494 35.9607 30.8183ZM35.3406 28.9413C35.4954 29.2414 35.6126 29.5568 35.7114 29.8792L29.8246 32.0218C29.823 32.0147 29.8216 32.0075 29.8202 32.0002L35.2878 28.8435C35.3056 28.8759 35.3236 28.9082 35.3406 28.9413ZM35.2173 28.7209L29.7883 31.8554C29.785 31.8453 29.7816 31.8353 29.7778 31.8255L34.5329 27.8355C34.7908 28.106 35.0242 28.3977 35.2173 28.7209ZM33.7055 27.0781C33.9579 27.2864 34.2042 27.5028 34.4339 27.734L29.7103 31.6975C29.7033 31.6873 29.6959 31.6771 29.6882 31.6672L33.6044 27.0001C33.6385 27.0256 33.6726 27.051 33.7055 27.0781ZM33.4888 26.9179L29.5898 31.5646C29.5796 31.5558 29.5691 31.5473 29.5583 31.5389L32.5236 26.4028C32.8511 26.5584 33.1873 26.7136 33.4888 26.9179ZM32.3949 26.3431L29.4397 31.4617C29.4274 31.4549 29.415 31.4483 29.4022 31.4419L31.3804 26.007C31.7285 26.0892 32.0687 26.1968 32.3949 26.3431ZM30.6003 25.8608C30.8158 25.8923 31.0299 25.9297 31.2414 25.9755L29.2794 31.3659C29.2647 31.3512 29.2515 31.3352 29.2398 31.3178L30.2076 25.8291C30.3383 25.8328 30.4691 25.8416 30.6003 25.8608ZM29.0468 25.8409C29.1408 25.8401 29.2349 25.8434 29.326 25.8427C29.5719 25.8409 29.8179 25.8267 30.0644 25.8269L29.1387 31.0772C29.1169 31.0135 29.0931 30.9509 29.0574 30.8979C29.0537 30.8925 29.0504 30.8869 29.0468 30.8815V25.8409H29.0468ZM27.2218 26.2869C27.4107 26.2153 27.6031 26.1649 27.7959 26.1196L28.4889 30.0494C28.3791 29.9736 28.2818 29.9521 28.1682 29.9795L26.8748 26.4259C26.9893 26.3778 27.1048 26.3313 27.2218 26.2869ZM26.7447 26.4818L28.0358 30.0289C28.0078 30.0424 27.9787 30.058 27.948 30.0758C27.8856 30.1122 27.8316 30.1557 27.7867 30.2043L25.8894 26.9181C26.1633 26.7549 26.4493 26.6111 26.7447 26.4818ZM25.6548 27.0639C25.6924 27.0392 25.7307 27.0158 25.7688 26.9919L27.6967 30.3311C27.6451 30.4312 27.6277 30.543 27.6528 30.6555C27.6595 30.6852 27.6667 30.7148 27.6741 30.7442L24.9878 27.5428C25.203 27.3731 25.4258 27.2141 25.6548 27.0639ZM24.8773 27.6311L27.7839 31.0949C27.8231 31.2002 27.8672 31.3042 27.9169 31.4076C27.9213 31.4166 27.9249 31.426 27.9291 31.435L24.1774 28.287C24.3975 28.0494 24.6317 27.832 24.8773 27.6311ZM24.082 28.3915L28.0303 31.7045C28.0388 31.7334 28.0466 31.7625 28.0538 31.7917L23.4849 29.1539C23.6663 28.8899 23.8651 28.6356 24.082 28.3915ZM23.1776 29.6364C23.2502 29.5128 23.3264 29.3913 23.4057 29.2714L28.0899 31.9758C28.0915 31.9871 28.0928 31.9984 28.0942 32.0096L22.9178 30.1256C22.9975 29.9593 23.0837 29.7961 23.1776 29.6364ZM22.8583 30.2544L28.1065 32.1646C28.1067 32.17 28.1069 32.1754 28.1071 32.1809L22.5163 31.1951C22.6075 30.8702 22.7214 30.5568 22.8583 30.2544ZM22.4233 31.5594C22.4404 31.4829 22.4591 31.4072 22.4786 31.332L28.1063 32.3243C28.1062 32.3279 28.1062 32.3316 28.106 32.3352H22.3096C22.3375 32.0769 22.3656 31.818 22.4233 31.5594ZM22.235 32.9148C22.2599 32.7691 22.2777 32.6229 22.294 32.4766H28.119C28.1196 32.4794 28.1202 32.4821 28.1208 32.4849L22.2419 33.5215C22.2142 33.3199 22.2002 33.1181 22.235 32.9148ZM22.3407 34.2505C22.3307 34.0533 22.294 33.8573 22.2627 33.6614L28.1373 32.6256C28.1371 32.6291 28.1373 32.6325 28.1369 32.6361L22.4371 34.7107C22.388 34.5613 22.3488 34.4096 22.3407 34.2505ZM22.6228 35.2549C22.5841 35.1162 22.5322 34.9806 22.4833 34.8443L28.1593 32.7784C28.1629 32.7821 28.1669 32.7856 28.171 32.7891L22.8756 35.8464C22.7707 35.6594 22.6813 35.4643 22.6228 35.2549ZM23.3687 36.6037C23.2271 36.3946 23.0782 36.1863 22.9466 35.9686L28.3118 32.8711L23.5634 36.8554C23.4939 36.7737 23.4275 36.6906 23.3687 36.6037ZM23.9114 37.2527C23.8291 37.1542 23.7418 37.0585 23.6563 36.962L28.4026 32.9794L24.4445 37.6965C24.2541 37.5615 24.0607 37.4316 23.9114 37.2527ZM24.8089 37.9906C24.7317 37.913 24.6468 37.8446 24.5593 37.7796L28.459 33.1321C28.4532 33.154 28.4449 33.1776 28.4341 33.2033L25.4772 38.3248C25.2491 38.2192 24.9908 38.1731 24.8089 37.9906ZM26.5777 38.789C26.4552 38.7324 26.3309 38.6717 26.1969 38.6487C26.0891 38.6303 26.0855 38.5555 26.1174 38.4599C26.1657 38.3157 26.2592 38.198 26.3259 38.0651C26.3716 37.9737 26.41 37.8641 26.298 37.8095C26.1885 37.7562 26.118 37.8474 26.0761 37.9422C26.0219 38.0646 25.9747 38.1901 25.9235 38.3139C25.8687 38.4465 25.7719 38.513 25.6462 38.4216C25.6317 38.4111 25.6169 38.4013 25.6018 38.3917L28.4689 33.4259C28.4871 33.4348 28.5038 33.4445 28.519 33.4553L26.5777 38.789ZM26.9173 38.9018C26.8461 38.8944 26.7767 38.8729 26.7075 38.8456L28.6237 33.5807C28.6457 33.6279 28.6588 33.6811 28.6654 33.7392C28.6659 33.7437 28.6664 33.7481 28.6669 33.7526L27.739 39.0151C27.4598 38.9801 27.1892 38.9303 26.9173 38.9018ZM28.9055 39.0561C28.7854 39.0596 28.6665 39.0568 28.549 39.045C28.3168 39.0635 28.0953 39.0534 27.8797 39.0312L28.7855 33.8942C28.8039 33.8872 28.8251 33.8763 28.8504 33.8597C28.864 33.8508 28.8833 33.8481 28.9055 33.8534V39.0561H28.9055ZM28.9055 30.6228C28.834 30.4767 28.7646 30.3294 28.6599 30.2053L27.9338 26.0877C28.1779 26.0323 28.4216 25.9789 28.6586 25.8951C28.7377 25.8672 28.8208 25.8531 28.9055 25.8463V30.6228H28.9055ZM29.0468 39.0492V33.9855C29.1587 34.16 29.1541 34.3309 29.1216 34.5333C29.1075 34.6212 29.21 34.7575 29.3384 34.8671L30.0471 38.8868C29.7113 38.9598 29.3755 39.0263 29.0468 39.0492ZM30.3023 38.8308C30.2634 38.8394 30.2244 38.848 30.1854 38.8566L29.5023 34.983C29.5645 35.0177 29.6245 35.0401 29.6732 35.0425C29.7368 35.0457 29.8005 35.049 29.8641 35.0523L31.1471 38.577C30.8727 38.6808 30.5916 38.7673 30.3023 38.8308ZM31.2788 38.5256L30.0175 35.0604C30.1587 35.0679 30.2999 35.0758 30.441 35.0845L32.1806 38.0976C31.8871 38.2568 31.5871 38.4019 31.2788 38.5256ZM33.107 37.4787C32.9131 37.5944 32.7499 37.7712 32.5506 37.8885C32.469 37.9364 32.387 37.9834 32.3045 38.0295L30.6107 35.0957C30.8001 35.1083 30.9891 35.1227 31.1777 35.1396L33.1289 37.4649C33.1215 37.4695 33.1144 37.4742 33.107 37.4787ZM31.9871 34.2259C31.7312 34.217 31.4749 34.2101 31.2191 34.1957L30.7829 33.8297C30.7761 33.8133 30.7716 33.7981 30.7712 33.7852C30.7688 33.7143 30.8102 33.703 30.8702 33.6977C30.9307 33.6923 30.9912 33.6887 31.0517 33.6858L31.9871 34.2259ZM31.3246 33.6801C31.5863 33.6811 31.8478 33.6978 32.1087 33.7128C32.21 33.7186 32.3114 33.725 32.4128 33.732L33.9118 34.2776C33.4075 34.2701 32.9029 34.2719 32.399 34.2436C32.3633 34.2416 32.3276 34.2403 32.2919 34.2386L31.3246 33.6801ZM33.2479 37.3867L31.3784 35.1588C31.5008 35.171 31.623 35.1841 31.7448 35.199C31.9133 35.2197 32.0822 35.2345 32.2513 35.2464L33.989 36.7044C33.7539 36.9439 33.5261 37.1912 33.2479 37.3867ZM34.2319 36.4668C34.1833 36.5115 34.1359 36.5573 34.089 36.6038L32.4889 35.2612C32.9727 35.2881 33.4575 35.2995 33.9386 35.3526L34.7242 35.8062C34.5726 36.0363 34.4364 36.2784 34.2319 36.4668ZM34.8365 35.644C34.8255 35.6588 34.8151 35.6741 34.8044 35.6892L34.309 35.4032C34.3974 35.4177 34.4856 35.4336 34.5736 35.4524C34.6546 35.4697 34.7256 35.5071 34.8053 35.5241C34.8637 35.5366 34.881 35.5841 34.8365 35.644ZM35.4485 34.3288C35.3212 34.3281 35.1939 34.3287 35.0665 34.3287C34.8289 34.3075 34.5909 34.2953 34.3528 34.2876L32.953 33.7781C33.1098 33.7945 33.2663 33.8139 33.422 33.8375C34.0989 33.9402 34.7857 33.9099 35.4624 34.0118C35.5834 34.0301 35.5802 34.0945 35.5815 34.1653C35.5831 34.2483 35.561 34.3295 35.4485 34.3288ZM35.9627 32.6101C36.0093 32.8977 35.8467 32.9115 35.6311 32.891C34.7523 32.8075 33.8673 32.822 32.9891 32.7231C32.7888 32.7005 32.5844 32.696 32.3829 32.7052C31.8543 32.7292 31.3284 32.6474 30.8007 32.6558L30.184 32.5471C30.1773 32.5402 30.1705 32.533 30.1639 32.5254C30.1495 32.5088 30.1349 32.4926 30.1202 32.4766H35.9907C35.974 32.5224 35.9559 32.5681 35.9627 32.6101ZM36.0281 32.3352H29.9928C29.9838 32.3246 29.975 32.3139 29.9665 32.303L36.0034 31.2386C36.009 31.396 36.0163 31.5536 36.0703 31.7103C36.1369 31.9036 36.0781 32.1247 36.0281 32.3352ZM37.7814 51.9884C38.1651 51.783 38.5201 51.5347 38.8313 51.2335C39.227 50.8506 39.5561 50.4194 39.6537 49.8547C39.6601 49.8179 39.6816 49.7776 39.6726 49.7454C39.5905 49.4524 39.7929 49.3437 39.9943 49.2236C40.2305 49.0827 40.4491 48.9095 40.6931 48.7853C40.9881 48.6352 40.9962 48.6511 40.9878 49.0184C41.0075 49.1841 40.999 49.3701 40.7282 49.4017C40.6427 49.4117 40.6195 49.4892 40.701 49.5141C41.035 49.6159 40.9013 49.8827 40.8881 50.0757C40.8538 50.5808 40.7729 51.0825 40.7251 51.5869C40.6927 51.9293 40.4938 52.196 40.348 52.4867C40.3084 52.5656 40.2125 52.598 40.1157 52.5866C39.3606 52.4976 38.6052 52.4106 37.8507 52.3161C37.7686 52.3059 37.6462 52.3093 37.6225 52.2088C37.597 52.1006 37.6967 52.0337 37.7814 51.9884ZM36.0173 62.8987C35.9199 62.901 35.8822 62.8906 35.8678 62.8425L37.291 61.1464C37.181 61.3755 37.0654 61.602 36.9447 61.8271C36.8579 61.989 36.7783 62.1567 36.7003 62.3256L36.0173 62.8987ZM36.5616 62.6266C36.5391 62.6751 36.5169 62.7238 36.4941 62.772C36.4377 62.8912 36.3702 62.9941 36.2175 62.9153L36.5616 62.6266ZM35.7727 62.7359L35.6914 62.8328C35.6829 62.8267 35.6747 62.8188 35.6673 62.8102C35.6107 62.7443 35.6451 62.6859 35.6789 62.6272C35.6927 62.603 35.7095 62.5806 35.7593 62.5058C35.7646 62.5976 35.7717 62.6346 35.7677 62.6703C35.7653 62.6913 35.7695 62.7137 35.7727 62.7359ZM35.5513 61.7018C35.4864 61.3998 35.47 61.1042 35.4637 60.815C35.4621 60.7395 35.4599 60.6639 35.4578 60.5883L35.9328 57.8941C36.0505 57.9344 36.1643 57.9841 36.2732 58.0492C36.424 58.1395 36.5985 58.1522 36.7627 58.1906C36.7873 58.1963 36.8085 58.1977 36.8273 58.196L35.5513 61.7018ZM37.1631 57.6868C37.2251 57.714 37.2832 57.7639 37.3365 57.8113C37.3589 57.8312 37.3828 57.8494 37.4067 57.8674C37.6488 58.0506 37.6607 58.0881 37.5162 58.3399C37.0376 59.174 36.5568 60.0067 36.0757 60.8393C36.0228 60.9309 35.9692 61.0221 35.9158 61.1135L37.1631 57.6868ZM36.9798 57.6903C36.9923 57.6835 37.0047 57.6788 37.017 57.6749L36.9362 57.8967C36.923 57.8145 36.9081 57.729 36.9798 57.6903ZM35.9925 62.0697L36.4326 61.3074C36.9518 60.4304 37.4515 59.5423 37.9623 58.6606C38.0282 58.5468 38.0773 58.4244 38.2452 58.527C38.3873 58.6138 38.5265 58.6687 38.4143 58.8979C38.1523 59.4334 37.8177 59.9308 37.5887 60.4826C37.563 60.5444 37.5357 60.6052 37.5091 60.6665L35.8581 62.6341C35.8605 62.4183 35.9156 62.2357 35.9925 62.0697ZM38.9643 59.1732C39.0287 59.0426 39.1005 59.025 39.2155 59.1009C39.2769 59.1414 39.3452 59.1712 39.409 59.2081C39.4923 59.2564 39.5236 59.4521 39.6797 59.3013C39.6888 59.2924 39.7475 59.3234 39.7745 59.3461C39.8543 59.413 39.9224 59.4891 39.9836 59.5705L37.7912 61.4102C38.0193 60.9668 38.2776 60.5378 38.4899 60.0869C38.636 59.7766 38.8124 59.4808 38.9643 59.1732ZM38.93 53.4622C39.1768 53.4083 39.4108 53.4784 39.6462 53.4999C39.7748 53.5117 39.7746 53.5911 39.6981 53.6812C39.6014 53.7952 39.4317 53.8198 39.3586 53.9637C39.3431 53.9944 39.3007 53.9899 39.2842 53.9614C39.1829 53.7853 38.9506 53.7005 38.93 53.4622ZM40.0647 59.6871C40.1043 59.7487 40.1415 59.8121 40.177 59.8765C40.2173 59.9495 40.4074 60.1825 40.476 60.3108C40.5239 60.4003 40.5712 60.4887 40.6152 60.5788L37.3578 62.4595C37.3581 62.4586 37.3586 62.4577 37.3589 62.4567C37.4312 62.2025 37.528 61.96 37.6376 61.7236L40.0647 59.6871ZM36.8141 63.3645L41.0847 61.8101C41.0802 62.1198 41.2633 62.3882 41.2842 62.6911C41.2869 62.7306 41.2899 62.7701 41.2927 62.8096L36.7121 63.6173C36.7469 63.5334 36.7798 63.4486 36.8141 63.3645ZM36.8916 63.1858C36.9105 63.1454 36.9302 63.1054 36.9516 63.0662C37.0074 62.9638 37.058 62.8581 37.1201 62.7599L40.6746 60.7078C40.7207 60.8137 40.7609 60.9235 40.7902 61.0419C40.8388 61.2387 40.9928 61.4277 41.0488 61.6442C41.051 61.6527 41.0539 61.6612 41.0571 61.6697L36.8916 63.1858ZM35.6851 51.1229C35.9692 51.4657 36.1938 51.7865 36.4907 52.0768C36.3193 52.1178 36.1821 52.0905 36.0448 52.0694C35.8944 52.0462 35.8944 51.8942 35.8795 51.8101C35.8458 51.619 35.831 51.4322 35.6876 51.2824C35.6693 51.2632 35.6851 51.2115 35.6851 51.1229ZM35.6549 53.8937C35.7326 53.669 35.7794 53.438 35.7709 53.1997C35.7658 53.0592 35.8518 53.0627 35.9464 53.0719C36.3326 53.1092 36.7199 53.1392 37.1046 53.1887C37.3546 53.2208 37.6105 53.2255 37.8852 53.3245C37.6609 53.4856 37.495 53.6756 37.3462 53.8812C37.2888 53.9606 37.2442 54.0465 37.2304 54.1462C37.2216 54.2094 37.301 54.2968 37.2263 54.3282C37.15 54.3603 37.025 54.375 36.9664 54.3336C36.7459 54.1777 36.4993 54.2638 36.2684 54.2386C36.1397 54.2246 36.0042 54.2119 35.8707 54.2117C35.6809 54.2114 35.5925 54.0742 35.6549 53.8937ZM35.5914 57.8006C35.6609 57.816 35.7293 57.833 35.7967 57.852L35.4352 59.902C35.4118 59.2565 35.3881 58.6109 35.4053 57.9645C35.4092 57.8177 35.4133 57.761 35.5914 57.8006ZM35.0454 53.6321C35.0645 53.4682 35.1083 53.3692 35.2933 53.4265C35.3765 53.4522 35.4173 53.4181 35.4275 53.2659C35.5184 53.6883 35.4212 54.0089 35.2766 54.3476C35.1933 54.0959 35.0137 53.9053 35.0454 53.6321ZM34.8706 62.2063C34.8636 62.2096 34.8567 62.2116 34.8498 62.2131V60.0569C34.8892 60.6921 34.9482 61.3264 34.9144 61.9636C34.9101 62.0463 34.9634 62.1624 34.8706 62.2063ZM34.9086 62.4881C34.8942 62.5317 34.8808 62.5811 34.8498 62.6167V62.383C34.892 62.397 34.9296 62.4241 34.9086 62.4881ZM34.2641 49.0148C34.39 48.9754 34.5081 48.9134 34.6211 48.75C34.6938 49.2549 35.083 49.6743 34.6597 50.1164C34.4313 49.8526 34.3308 49.5166 34.2041 49.1952C34.1826 49.1406 34.1483 49.0512 34.2641 49.0148ZM33.3436 51.2139C33.3966 51.0151 33.6002 50.99 33.74 50.9901C33.9043 50.9903 33.8981 51.2006 33.9157 51.3221C33.9428 51.5096 33.7308 51.3749 33.6863 51.464C33.529 51.4656 33.3174 51.3118 33.3436 51.2139ZM33.5325 53.1357C33.5652 53.1061 33.6002 53.0792 33.634 53.0513C33.7152 53.1212 33.7443 53.2138 33.7731 53.3045C33.7945 53.3723 33.8722 53.4457 33.8202 53.5088C33.7556 53.5871 33.6656 53.5153 33.5938 53.491C33.4979 53.4585 33.3747 53.4232 33.3572 53.314C33.3412 53.2149 33.4692 53.1929 33.5325 53.1357ZM33.0793 53.1562C33.0002 53.1187 32.9535 53.0578 33.0047 52.9558C33.0864 52.7929 33.2202 52.6931 33.3778 52.6181C33.427 52.5948 33.5513 52.7181 33.5505 52.7855C33.5495 52.8746 33.1554 53.1923 33.0793 53.1562ZM33.1431 51.3806C33.2823 51.376 33.3939 51.4443 33.4214 51.5811C33.4438 51.6931 33.282 51.7085 33.2797 51.836C33.1603 51.7297 32.9974 51.7287 32.9777 51.5611C32.9628 51.4337 33.036 51.3842 33.1431 51.3806ZM32.9413 51.8785C32.9772 51.8518 33.3456 52.1325 33.3727 52.2004C33.3938 52.2532 33.3877 52.3003 33.3459 52.3434C33.3045 52.386 33.2739 52.4416 33.2272 52.476C33.1278 52.5489 33.0101 52.7008 32.921 52.659C32.7989 52.6019 32.8441 52.4073 32.7968 52.288C32.842 52.1415 32.808 51.9774 32.9413 51.8785ZM32.6277 53.0063C32.7128 53.0401 32.7165 53.0979 32.7259 53.168C32.6261 53.1545 32.6135 53.0982 32.6277 53.0063ZM32.7007 53.8248C32.7089 53.6775 32.6956 53.598 32.672 53.5177C32.6468 53.4319 32.6641 53.3563 32.7653 53.326C32.8609 53.2974 32.9244 53.3177 32.9923 53.4057C33.1421 53.5997 33.3262 53.7594 33.5793 53.8057C33.6473 53.8181 33.6868 53.8482 33.7084 53.9099C33.7242 53.9551 33.7669 54.0102 33.7983 53.9987C34.029 53.9143 33.9087 54.0937 33.9101 54.1545C33.9144 54.3445 33.8203 54.4191 33.6233 54.3957C33.4142 54.3709 33.2025 54.3935 33.0112 54.4917C32.9183 54.5394 32.8681 54.5188 32.845 54.4279C32.789 54.2074 32.7388 53.9854 32.7007 53.8248ZM33.7922 61.1118C33.7945 61.0814 33.7985 61.0499 33.8032 61.0166C33.8947 61.1074 33.8908 61.191 33.8517 61.2753L33.7922 61.1118ZM33.8225 61.6081C33.82 61.6059 33.8177 61.6035 33.8156 61.6012C33.7944 61.577 33.7923 61.5587 33.7983 61.5417L33.8225 61.6081ZM33.7809 60.8974C33.7257 60.8927 33.6942 60.8456 33.6997 60.783C33.7255 60.4859 33.7217 60.1996 33.5786 59.9184C33.5325 59.8278 33.6039 59.6803 33.5778 59.5507C33.4888 59.1084 33.4719 58.6536 33.3448 58.2167C33.3036 58.0753 33.3829 57.9296 33.3561 57.7753C33.3431 57.7004 33.4968 57.6962 33.5859 57.6697L33.8795 59.3348C33.8795 59.3491 33.8794 59.3626 33.8794 59.377C33.8493 59.7863 33.9311 60.2878 33.8361 60.7839C33.8284 60.8244 33.8713 60.9051 33.7809 60.8974ZM33.8778 58.346C33.8789 58.405 33.8795 58.4642 33.88 58.5237L33.7263 57.6523C33.7929 57.6657 33.8248 57.7255 33.849 57.8357C33.887 58.0079 33.8747 58.1762 33.8778 58.346ZM32.738 57.9205C33.051 57.7735 33.2065 57.8831 33.1797 58.2365C33.1614 58.4783 33.2045 58.7104 33.2653 58.9418C33.3202 59.1506 33.2737 59.3671 33.3307 59.5809C33.3679 59.7202 33.3809 59.8635 33.3904 60.0076L32.6464 57.9636C32.6769 57.9492 32.7075 57.9348 32.738 57.9205ZM32.0306 58.3005C32.0742 58.2767 32.3591 58.1175 32.419 58.0817C32.4516 58.0623 32.4851 58.0442 32.5189 58.0266L33.5208 60.7793C33.5331 60.8714 33.4788 60.9812 33.4981 61.0896C33.5445 61.3495 33.5869 61.611 33.6157 61.8735L31.6737 58.5097C31.7896 58.4349 31.9094 58.3668 32.0306 58.3005ZM31.4283 58.6853C31.4701 58.6517 31.5128 58.6199 31.5562 58.5891L33.6403 62.1987C33.636 62.275 33.6082 62.3548 33.5003 62.3959L30.7972 59.1745C30.9826 59.0315 31.3803 58.724 31.4283 58.6853ZM30.1416 59.8343C30.2107 59.7763 30.5463 59.3709 30.6416 59.3032C30.6581 59.2915 30.6736 59.2786 30.689 59.2654L33.354 62.4414C33.2815 62.4742 33.2217 62.5264 33.174 62.5908L30.0333 59.9554C30.081 59.8977 30.1232 59.8497 30.1416 59.8343ZM29.8307 60.228C29.8432 60.2014 29.8905 60.1361 29.9449 60.0658L33.1026 62.7154C33.0782 62.7706 33.0599 62.8298 33.0479 62.8901C33.0443 62.9085 33.0419 62.9265 33.0402 62.9443L29.3939 60.8392C29.5108 60.6545 29.801 60.2916 29.8307 60.228ZM28.9003 61.7994C28.9529 61.6558 29.0907 61.3413 29.1814 61.2071C29.2342 61.129 29.2789 61.0453 29.3241 60.962L33.0556 63.1164C33.0851 63.2154 33.1506 63.3025 33.2499 63.3767C33.2664 63.389 33.2819 63.4025 33.2979 63.4156L28.8954 61.8132C28.897 61.8086 28.8987 61.804 28.9003 61.7994ZM28.731 62.2339C28.776 62.141 28.8123 62.0438 28.8474 61.9462L33.5558 63.6599C33.5682 63.6727 33.5807 63.6855 33.593 63.6982C33.6101 63.7158 33.6229 63.7356 33.6338 63.7562L28.5509 62.8599C28.589 62.6622 28.6829 62.3331 28.731 62.2339ZM28.4886 63.1915C28.5009 63.1274 28.5231 63.0641 28.5312 63L33.6766 63.9073C33.6787 63.9249 33.6804 63.9422 33.682 63.9592H28.4053C28.4234 63.6807 28.453 63.3765 28.4886 63.1915ZM28.3877 64.3216C28.3895 64.2552 28.3927 64.18 28.3969 64.1006H33.6994C33.7023 64.1164 33.706 64.1315 33.7096 64.1467L28.438 65.0762C28.4173 64.8247 28.3807 64.5753 28.3877 64.3216ZM28.4511 65.3284C28.4506 65.2916 28.4491 65.2549 28.4473 65.2182L33.7521 64.2828C33.7575 64.2962 33.7632 64.3094 33.7691 64.3223L28.6313 66.1923C28.5645 65.9037 28.455 65.6171 28.4511 65.3284ZM28.9595 67.159C28.8478 66.8861 28.7316 66.6181 28.6628 66.3313L33.84 64.447C33.8471 64.4574 33.8543 64.4678 33.8619 64.4779L29.0103 67.279C28.9932 67.239 28.9759 67.1992 28.9595 67.159ZM29.0673 67.4093L33.9579 64.5857C33.9655 64.593 33.9729 64.6004 33.9808 64.6075L29.5638 68.3138C29.3718 68.0304 29.2091 67.7256 29.0673 67.4093ZM29.7513 68.5725C29.7147 68.526 29.6795 68.4784 29.6448 68.4304L34.0938 64.6973C34.1008 64.7021 34.1079 64.7068 34.115 64.7115L30.3639 69.1818C30.1347 69.0056 29.9315 68.8017 29.7513 68.5725ZM31.0928 69.6078C30.8701 69.5123 30.666 69.3976 30.4781 69.2656L34.2374 64.7855C34.2434 64.7888 34.2493 64.7922 34.2555 64.7955L31.3979 69.745C31.2966 69.698 31.195 69.6517 31.0928 69.6078ZM32.4339 70.2048C32.1238 70.0904 31.8253 69.946 31.5264 69.8052L34.3763 64.869C34.3818 64.8745 34.3872 64.8801 34.3924 64.8859L32.4541 70.2113C32.4474 70.2089 32.4405 70.2073 32.4339 70.2048ZM33.1686 70.3359C32.9866 70.2984 32.7829 70.2916 32.5907 70.2493L34.5014 64.9996C34.511 65.0064 34.5216 65.0127 34.533 65.0186L33.5841 70.4005C33.4459 70.3844 33.3076 70.3646 33.1686 70.3359ZM34.7084 70.4492C34.5671 70.4462 34.4218 70.4354 34.3968 70.4354C34.3432 70.4354 34.1575 70.4562 34.0978 70.4506C33.9731 70.4388 33.849 70.4282 33.7249 70.4158L34.6689 65.062C34.6821 65.0647 34.6953 65.0671 34.7084 65.0693V70.4492ZM34.7084 62.58C34.6922 62.5526 34.685 62.5198 34.6881 62.4793C34.6903 62.4517 34.6972 62.4272 34.7084 62.408V62.58ZM34.7084 62.1596C34.6841 62.1425 34.6598 62.1254 34.6349 62.1143C34.5733 62.0869 34.5283 62.0532 34.4954 62.0138L34.4181 61.5753C34.4256 61.1509 34.4193 60.714 34.4193 60.1399C34.3678 59.4212 34.4783 58.54 34.4627 57.6568C34.4607 57.5456 34.4796 57.4592 34.6075 57.4544C34.6611 57.4523 34.691 57.4681 34.7084 57.4933V62.1596ZM35.6593 70.3353C35.5768 70.3602 35.2432 70.407 35.1719 70.4106C35.0642 70.416 34.9572 70.4418 34.8498 70.4481V65.0849C34.8646 65.0861 34.8793 65.0873 34.894 65.0885L35.8119 70.2938C35.7607 70.3066 35.7098 70.3201 35.6593 70.3353ZM36.72 70.0368C36.6765 70.0514 36.3036 70.1834 36.2247 70.201C36.1332 70.2215 36.0412 70.2406 35.9496 70.2612L35.0405 65.1052C35.0603 65.1086 35.0801 65.1127 35.0998 65.1176L36.8709 69.9838C36.8209 70.0023 36.7706 70.0199 36.72 70.0368ZM37.2949 69.7893C37.2005 69.8438 37.1026 69.8904 37.0026 69.9321L35.2643 65.1561C35.292 65.1581 35.3195 65.1573 35.3466 65.1541L37.8549 69.4987C37.6035 69.6363 37.3392 69.7638 37.2949 69.7893ZM38.7395 68.8957C38.6828 68.94 38.3561 69.205 38.2605 69.2508C38.2207 69.2698 38.187 69.3014 38.1496 69.3258C38.0985 69.359 38.0401 69.3942 37.9783 69.4297L35.4886 65.1174C35.516 65.1067 35.5428 65.0944 35.5689 65.0811L38.7578 68.8815C38.7517 68.8862 38.7456 68.891 38.7395 68.8957ZM39.1944 68.4969C39.098 68.6105 38.9852 68.7042 38.8696 68.7947L35.6929 65.009C35.721 64.9911 35.7478 64.9733 35.7734 64.9565L39.549 68.1246C39.4136 68.266 39.216 68.4714 39.1944 68.4969ZM39.6723 67.9947C39.6676 67.9999 39.6583 68.0098 39.6467 68.022L35.8937 64.8728C35.9228 64.8511 35.9515 64.8285 35.9796 64.8046L40.2125 67.2485C40.0367 67.5183 39.8021 67.8514 39.6723 67.9947ZM40.4639 66.8205C40.4334 66.8615 40.4178 66.9132 40.3923 66.9583C40.3662 67.0044 40.3306 67.0632 40.289 67.1294L36.086 64.7029C36.1136 64.6732 36.1396 64.642 36.1634 64.609L40.7381 66.274C40.6321 66.5141 40.5173 66.7489 40.4639 66.8205ZM40.9035 65.8719C40.8742 65.951 40.8361 66.0455 40.7943 66.144L36.237 64.4853C36.2551 64.4478 36.2706 64.4085 36.2826 64.3668L41.1022 65.2166C41.0446 65.4223 40.937 65.7813 40.9035 65.8719ZM41.1381 65.0794L36.3259 64.2309C36.3314 64.2219 36.3375 64.2136 36.3446 64.2069C36.3801 64.173 36.4121 64.1373 36.4421 64.1006H41.3248C41.2877 64.4303 41.2065 64.7541 41.1381 65.0794ZM41.338 63.9592H36.5429C36.5801 63.8992 36.613 63.8368 36.6433 63.773L41.3029 62.9514C41.3209 63.1996 41.3383 63.4478 41.3445 63.6963C41.3466 63.7845 41.3441 63.8721 41.338 63.9592ZM42.1503 37.129C42.1364 37.2218 42.1038 37.2825 42.0113 37.3355C41.8319 37.4381 41.8294 37.618 41.9867 37.7481C42.1383 37.8734 42.0742 38.0452 42.0554 38.1848C41.939 39.0514 41.8796 39.9231 41.795 40.7925C41.7097 41.669 41.6193 42.545 41.5355 43.4216C41.4972 43.823 41.4697 44.2255 41.4368 44.6274C41.4265 44.7519 41.4323 44.8712 41.2628 44.9196C41.1477 44.9525 41.1255 45.0942 41.1154 45.2036C41.1066 45.2976 41.0768 45.3619 41.001 45.4145C40.5082 45.7565 40.0317 46.1241 39.4106 46.2214C39.2541 46.2459 39.2216 46.2316 39.2492 46.0775C39.2804 45.9028 39.2952 45.7277 39.3929 45.57C39.439 45.4956 39.4597 45.4034 39.4524 45.3105C39.4461 45.2319 39.4312 45.1562 39.3355 45.1452C39.2329 45.1335 39.2138 45.2143 39.1985 45.2883C39.1865 45.3465 39.1936 45.4095 39.1768 45.4658C39.1214 45.6514 39.0011 45.6957 38.8753 45.5538C38.6693 45.3214 38.4103 45.3388 38.1489 45.3599C37.9083 45.3794 37.8804 45.3612 37.9713 45.1291C38.2515 44.4138 38.5382 43.701 38.8267 42.9889C39.5464 41.2123 40.2701 39.4372 40.9889 37.6602C41.291 36.9136 41.5849 36.1637 41.8825 35.4153C41.9187 35.3244 41.9552 35.2295 42.0546 35.192C42.1905 35.1407 42.296 35.2522 42.2907 35.4721C42.1403 35.9914 42.2345 36.5676 42.1503 37.129ZM45.9548 32.3265C46.3002 32.2208 46.664 32.2308 47.0167 32.1879C47.4062 32.1405 47.8026 32.1129 48.3688 32.0445C48.6083 31.9824 48.7595 32.3198 48.9544 32.5556C49.3951 33.0887 49.8221 33.633 50.2774 34.1542C50.3166 34.199 50.4248 34.249 50.3713 34.3346C50.3192 34.4178 50.2355 34.3494 50.1672 34.3369C49.0102 34.1247 47.8617 33.8713 46.7158 33.6067C46.593 33.5784 46.4762 33.5244 46.3568 33.4818C46.2067 33.4282 46.1106 33.3796 46.1325 33.1609C46.1496 32.9896 46.1076 32.7507 45.8881 32.6521C45.7874 32.6069 45.8017 32.5293 45.8001 32.4479C45.7979 32.3351 45.8874 32.3472 45.9548 32.3265ZM50.3064 35.7182C50.1209 35.9599 49.8258 36.0756 49.6226 36.2919C49.1577 36.7867 48.5722 37.1521 48.1447 37.6855C48.0981 37.7436 48.0438 37.7971 47.9865 37.8448C47.3425 38.3805 46.8138 39.0376 46.1627 39.5669C45.755 39.8982 45.3461 40.2268 44.9033 40.5096C44.4047 40.8279 44.2134 41.3389 44.0612 41.8641C43.9661 42.1923 43.9276 42.5371 43.8654 42.8747C43.803 43.2134 43.5279 43.3877 43.3004 43.5943C43.1757 43.7074 43.0226 43.7889 42.8842 43.8874C42.7322 43.9957 42.6744 43.9548 42.6956 43.7747C42.7 43.7378 42.6962 43.6999 42.6962 43.6624C42.6934 43.6622 42.6906 43.6619 42.6878 43.6616C42.7451 43.0676 42.8024 42.4735 42.8596 41.8795C42.9098 41.3594 42.9587 40.8392 43.0103 40.3193C43.0801 39.614 43.1535 38.9091 43.2224 38.2038C43.274 37.6763 43.3219 37.1484 43.3697 36.6206C43.4021 36.2637 43.4236 35.9055 43.4662 35.5498C43.4828 35.4114 43.5273 35.2631 43.735 35.3769C43.7959 35.4102 43.8815 35.3975 43.9556 35.4075C44.0873 35.4255 44.2125 35.4477 44.2973 35.5734C44.3973 35.7216 44.5458 35.7845 44.7249 35.7672C44.9815 35.7425 45.304 35.8817 45.4802 35.6774C45.6816 35.4438 45.7656 35.1129 45.8366 34.8001C45.8597 34.6984 45.8683 34.5935 45.8865 34.4906C45.9317 34.2365 46.0071 34.1676 46.2446 34.2543C46.9631 34.5169 47.7213 34.6076 48.4579 34.7905C48.9913 34.9229 49.5317 35.0293 50.0716 35.1331C50.5858 35.232 50.6218 35.3074 50.3064 35.7182ZM56.8525 28.8288C56.8158 28.9117 56.7795 28.9987 56.8099 29.0893C56.9107 29.3889 56.8005 29.6566 56.6823 29.9192C56.6101 30.0797 56.5629 30.2423 56.5668 30.4166C56.57 30.563 56.5144 30.6428 56.3712 30.6992C55.9643 30.8597 55.7012 31.1088 55.68 31.6051C55.6655 31.9463 55.5342 32.272 55.3196 32.5875C55.0707 32.9533 54.7886 33.1876 54.3883 33.3408C53.9978 33.4903 53.6084 33.6316 53.1962 33.7052C52.9356 33.7518 52.6828 33.8221 52.4859 34.0115C52.2271 34.2604 51.8951 34.3831 51.5893 34.5519C51.5044 34.5987 51.4552 34.5703 51.3994 34.5131C50.9974 34.1013 50.6157 33.6718 50.2555 33.2226C50.1311 33.0673 50.0053 32.9136 49.8296 32.7999C49.6753 32.7002 49.6864 32.4815 49.5863 32.3344C49.5834 32.3301 49.6205 32.2925 49.6435 32.2773C50.2922 31.8507 50.9365 31.4188 51.262 30.6687C51.3842 30.3869 51.6301 30.2579 51.8927 30.1739C52.2638 30.0553 52.6252 29.919 52.9736 29.7455C53.3908 29.5377 53.8421 29.4252 54.2862 29.2985C54.9864 29.0988 55.5929 28.7515 56.094 28.2249C56.265 28.0452 56.4602 27.8948 56.6433 27.7299C56.745 27.6383 56.8025 27.6628 56.8196 27.7919C56.854 28.0508 56.8841 28.3103 56.9161 28.5695C56.9262 28.6643 56.889 28.7462 56.8525 28.8288Z" fill="#EBF5EE"/>
    <path d="M29.2035 61.5886C29.2035 61.5886 29.2106 61.5795 29.2113 61.5793C29.212 61.579 29.2062 61.5824 29.2062 61.5824L29.2035 61.5886Z" fill="black"/>
</svg>
