<svg width="39" height="56" viewBox="0 0 39 56" fill="none" xmlns="http://www.w3.org/2000/svg">
    <path d="M37.4606 15.9971C37.3502 15.771 37.2881 15.5205 37.2728 15.2775C37.2538 14.9751 37.2785 14.6757 37.0989 14.4069C37.0672 14.3594 37.0859 14.2915 37.1215 14.227C37.1863 14.1093 37.2113 13.9847 37.1627 13.8406C37.0827 13.6028 37.1221 13.3478 37.0955 13.1028C37.0657 12.8282 37.144 12.5285 36.945 12.283C36.921 12.2533 36.9224 12.2042 36.9032 12.1689C36.7507 11.8893 36.7013 11.5727 36.5454 11.285C36.3443 10.9135 36.0614 10.6601 35.7443 10.4196C35.7109 10.3943 35.6924 10.355 35.6661 10.3344C35.4256 10.1455 35.321 9.75145 34.9083 9.81695C34.8866 9.82039 34.8592 9.78805 34.8347 9.77197C34.5399 9.57828 34.268 9.35499 34.0407 9.08488C33.7405 8.72798 33.6452 8.42967 33.9835 7.98385C34.056 7.8884 34.1816 7.83088 34.1971 7.69239C34.2163 7.52017 34.2952 7.3679 34.3587 7.21052C34.4073 7.09026 34.448 6.96624 34.4522 6.83646C34.4693 6.31533 34.4212 5.79155 34.5316 5.2744C34.5822 5.03753 34.5257 4.78321 34.6631 4.55769C34.7255 4.45532 34.6922 4.3356 34.6143 4.24493C34.5387 4.15702 34.4589 4.0687 34.3666 4.00033C34.1772 3.86008 34.0516 3.66492 33.9803 3.45659C33.9144 3.26434 33.8105 3.1196 33.6563 3.01593C33.4648 2.88723 33.3208 2.65512 33.0428 2.69436C32.9401 2.70886 32.8675 2.67164 32.8043 2.59144C32.6937 2.45104 32.5687 2.29033 32.407 2.2491C32.1341 2.17956 31.8545 2.10586 31.5631 2.12951C31.4194 2.14116 31.3285 2.25802 31.1936 2.28137C30.9491 2.3237 30.7011 2.35643 30.4637 2.42511C30.3076 2.47024 30.1107 2.43197 30.002 2.59449C29.8869 2.76676 29.7783 2.9307 29.5704 3.0148C29.2497 3.14452 29.0952 3.4637 28.863 3.69479C28.7494 3.80783 28.7161 3.9587 28.7046 4.11444C28.692 4.28307 28.7874 4.48451 28.5615 4.58894C28.5493 4.59455 28.5439 4.61887 28.539 4.63557C28.5042 4.75329 28.467 4.87045 28.4369 4.9894C28.3666 5.26721 28.3992 5.36162 28.6481 5.49314C28.751 5.54754 28.7827 5.59494 28.7479 5.70784C28.69 5.89556 28.7121 6.06568 28.8898 6.19026C28.969 6.24573 29.0154 6.33492 29.0186 6.42988C29.0293 6.74415 29.3039 7.00015 29.2124 7.33547C29.211 7.34035 29.214 7.34737 29.2168 7.3523C29.3243 7.53935 29.3538 7.73354 29.3666 7.95529C29.3947 8.43854 29.5332 8.90447 29.7416 9.34809C29.8174 9.50944 29.8343 9.7025 29.9639 9.83593C30.0893 9.96497 30.0598 10.0457 29.9131 10.1168C29.8767 10.1345 29.8462 10.1641 29.8115 10.1857C29.1099 10.6218 28.5833 11.1953 28.3432 12.0131C28.1946 12.519 27.9616 12.9946 27.763 13.4823C27.6422 13.7789 27.6658 13.937 27.8764 14.1706C28.0483 14.3613 28.272 14.4793 28.4709 14.6316C28.6051 14.7343 28.6694 14.8608 28.6289 15.0244C28.5112 15.4989 28.4915 15.984 28.4541 16.4682C28.4392 16.6615 28.4713 16.8926 28.3018 17.0303C27.9909 17.283 27.8223 17.6414 27.584 17.9472C27.3553 18.2405 27.1307 18.5322 26.8456 18.7784C26.5986 18.9918 26.3304 19.1774 26.0912 19.4027C25.8774 19.604 25.6338 19.7961 25.3225 19.8271C24.9072 19.8686 24.496 19.9758 24.0756 19.9367C23.7949 19.9106 23.6134 20.0064 23.5355 20.286C23.5255 20.3219 23.4936 20.3555 23.4642 20.3813C23.2731 20.5496 23.2117 20.7635 23.2731 21.0031C23.3133 21.1597 23.3233 21.325 23.4054 21.4754C23.2273 21.5403 23.0462 21.5435 22.8694 21.5638C22.3423 21.6244 21.8124 21.6614 21.289 21.7513C21.0636 21.7901 20.8401 21.8498 20.6887 22.0434C20.6193 22.1321 20.5435 22.2104 20.4552 22.2794C20.335 22.3733 20.2576 22.7561 20.3432 22.861C20.4794 23.0276 20.5128 23.2324 20.6024 23.4604C20.2887 23.3757 20.0263 23.5266 19.743 23.5124C19.2304 23.4867 18.7183 23.45 18.2054 23.4276C17.9268 23.4154 17.6298 23.4392 17.374 23.2673C17.3153 23.2279 17.2243 23.2295 17.174 23.2805C16.9504 23.5074 16.7244 23.3826 16.4988 23.2958C16.3464 23.2371 16.1992 23.1645 16.046 23.1085C15.8027 23.0197 15.7898 23.0024 15.8323 22.7511C15.942 22.1032 15.9475 21.4507 15.8482 20.8047C15.603 19.2095 14.9044 17.862 13.6704 16.8041C12.4223 15.734 10.9642 15.2375 9.35137 15.1749C8.59105 15.1454 7.83779 15.2646 7.10852 15.4877C5.23023 16.0622 3.73183 17.1579 2.66429 18.828C1.78167 20.2088 1.36674 21.7119 1.50663 23.3604C1.56813 24.0852 1.73393 24.7819 2.027 25.4451C2.36789 26.2165 2.82957 26.9018 3.44338 27.4871C3.97072 27.99 4.55051 28.4137 5.20479 28.7198C5.7042 28.9535 6.23009 29.1196 6.77938 29.2188C7.62231 29.371 8.46477 29.3901 9.30537 29.2559C10.3213 29.0938 11.2732 28.7353 12.1542 28.1974C13.447 27.4081 14.4518 26.3445 15.1315 24.9806C15.2118 24.8196 15.3206 24.7568 15.4812 24.7467C15.9107 24.7196 16.3195 24.6159 16.7053 24.4207C16.7952 24.3752 16.9005 24.3591 16.9852 24.4225C17.106 24.5129 17.234 24.5476 17.3793 24.5235C17.4456 24.5125 17.485 24.5204 17.4578 24.6016C17.2662 25.1724 17.1219 25.7566 16.889 26.3165C16.4666 27.332 16.0859 28.3652 15.6892 29.3915C15.3365 30.3039 14.9867 31.2173 14.6335 32.1294C14.5517 32.3408 14.4844 32.3406 14.2882 32.2129C14.118 32.102 14.0099 31.8985 13.7942 31.8626C13.6281 31.835 13.4584 31.8185 13.29 31.8168C12.9646 31.8134 12.7057 31.6555 12.4923 31.4403C12.2838 31.2299 12.0486 31.0722 11.7741 30.9978C11.6168 30.9551 11.4333 30.8729 11.2678 30.9717C10.8296 31.2334 10.7738 31.4365 10.9933 31.9044C11.0157 31.9521 11.034 32.0044 11.0668 32.0441C11.2685 32.2882 11.3008 32.5145 11.0825 32.7852C10.9394 32.9627 10.8785 33.1987 11.0352 33.4232C11.179 33.6291 11.227 33.8736 11.311 34.1038C11.5678 34.808 11.8287 35.5106 12.0831 36.2157C12.1555 36.4164 12.0875 36.5545 11.8861 36.6219C11.7937 36.6529 11.7264 36.7072 11.6516 36.7649C11.5227 36.8644 11.4537 37.0026 11.3586 37.1252C11.139 37.4085 11.1201 37.7392 11.1189 38.0612C11.1172 38.5375 11.3487 38.9855 11.3318 39.4693C11.3266 39.6168 11.4444 39.7634 11.3901 39.8964C11.2828 40.1594 11.268 40.3852 11.5498 40.5865C10.938 40.8043 10.3872 41.038 9.87626 41.3614C9.1748 41.8053 8.54366 42.3289 8.02802 42.9857C7.65018 43.467 7.36457 44.0047 7.10316 44.5556C6.68796 45.4306 6.47859 46.3552 6.45524 47.3242C6.4477 47.6372 6.48016 47.9471 6.53231 48.2534C6.6296 48.8247 6.86036 49.3452 7.01829 49.9121C7.87717 52.9951 11.9629 53.8007 12.2738 53.8362C13.1929 53.9412 14.0898 53.8276 14.964 53.5449C15.5432 53.3576 16.0903 53.0862 16.5945 52.7432C17.2084 52.3256 17.784 51.8617 18.2502 51.2703C18.687 50.7163 19.0547 50.1239 19.3272 49.4715C19.8426 48.2379 19.9995 46.9551 19.7711 45.6419C19.5781 44.533 19.1141 43.5332 18.3902 42.6661C18.313 42.5736 18.2907 42.4852 18.3283 42.3763C18.3719 42.2496 18.424 42.1254 18.4595 41.9965C18.5402 41.7033 18.6475 41.4073 18.415 41.1276C18.3674 41.0703 18.3715 40.9973 18.4046 40.9288C18.4393 40.8568 18.4774 40.8199 18.5343 40.9113C18.5742 40.9754 18.6192 41.0365 18.6563 41.1022C18.7785 41.3182 18.9193 41.5102 19.1353 41.6497C19.2679 41.7353 19.3568 41.8966 19.5522 41.8206C19.5608 41.8172 19.5782 41.841 19.5932 41.8491C19.7987 41.9589 19.9343 41.891 19.993 41.6627C20.0719 41.3559 19.9989 41.0455 20.0265 40.7355C20.0686 40.2621 20.0973 39.7871 20.1948 39.3222C20.3653 38.5091 20.5526 37.6997 20.7329 36.8888C20.7573 36.7792 20.8034 36.6821 20.8691 36.5892C21.101 36.2609 21.3377 35.9399 21.523 35.5759C21.9962 34.6457 22.3058 33.6587 22.5852 32.6599C22.6254 32.5161 22.6935 32.4241 22.8049 32.3412C23.1145 32.1107 23.422 31.8773 23.7092 31.6179C24.1714 31.2004 24.5903 30.7441 24.95 30.2336C25.0365 30.1108 25.1334 29.9989 25.3053 30.0483C25.6041 30.134 25.8858 30.2448 26.0537 30.5395C26.1726 30.7483 26.281 30.9769 26.4707 31.1237C26.833 31.4041 27.0747 31.4876 27.3674 31.1643C27.719 30.7758 28.2008 30.5433 28.5732 30.1769C28.659 30.0924 28.7497 30.0682 28.866 30.1496C28.9856 30.2333 29.1318 30.2493 29.269 30.1881C29.5462 30.0646 29.8456 30.006 30.1234 29.8871C30.6858 29.6465 31.2486 29.4064 31.8055 29.1534C32.5748 28.8039 33.3837 28.5456 34.125 28.1319C34.191 28.095 34.2694 28.0672 34.3173 28.013C34.5311 27.7711 34.7791 27.5622 34.9781 27.3063C35.1281 27.1134 35.2841 26.9306 35.4905 26.7877C35.6819 26.6552 35.8955 26.5168 35.8681 26.2206C35.8637 26.173 35.916 26.1156 35.9511 26.0698C36.029 25.968 36.12 25.8759 36.1924 25.7706C36.3312 25.5688 36.4877 25.373 36.5157 25.1161C36.5571 24.7375 36.6146 24.3647 36.7944 24.0209C36.9191 23.7826 36.8642 23.4984 36.9745 23.2545C37.0303 23.1313 37.0192 23.0067 36.9925 22.8761C36.9718 22.7752 36.9283 22.6737 36.9567 22.5655C37.01 22.363 37.1 22.1617 37.1077 21.9573C37.1313 21.3278 37.2288 20.6886 36.9574 20.081C36.863 19.8696 36.8269 19.6328 36.8657 19.4161C36.9164 19.1332 36.9242 18.8574 36.8878 18.5782C36.8285 18.1225 36.5991 17.6695 36.8796 17.2114C36.89 17.1943 36.8784 17.165 36.8835 17.1429C36.9515 16.8477 36.9564 16.5297 37.3438 16.4169C37.5458 16.3581 37.5586 16.1976 37.4606 15.9971ZM14.0093 21.069C14.027 21.1415 14.0341 21.2143 14.0381 21.2873L9.26731 22.1345C9.26471 22.1296 9.26237 22.1244 9.25992 22.1193L13.8463 20.438C13.9063 20.6463 13.958 20.8578 14.0093 21.069ZM13.5257 19.5944C13.6464 19.8302 13.7378 20.078 13.8148 20.3313L9.22321 22.0146C9.22194 22.009 9.22081 22.0033 9.21971 21.9976L13.4844 19.5176C13.4984 19.5431 13.5124 19.5684 13.5257 19.5944ZM13.4295 19.4213L9.19484 21.8838C9.19228 21.8759 9.18963 21.868 9.18669 21.8603L12.8956 18.7257C13.0968 18.9382 13.2789 19.1674 13.4295 19.4213ZM12.2503 18.1307C12.4472 18.2943 12.6393 18.4643 12.8185 18.6459L9.13404 21.7598C9.12852 21.7517 9.1228 21.7438 9.1168 21.736L12.1714 18.0694C12.198 18.0894 12.2246 18.1094 12.2503 18.1307ZM12.0812 18.0048L9.04002 21.6554C9.03205 21.6485 9.02388 21.6418 9.01545 21.6352L11.3284 17.6002C11.5839 17.7224 11.8461 17.8443 12.0812 18.0048ZM11.228 17.5533L8.92292 21.5745C8.91335 21.5692 8.90369 21.564 8.89372 21.559L10.4367 17.2892C10.7082 17.3538 10.9735 17.4383 11.228 17.5533ZM9.82818 17.1743C9.99628 17.1991 10.1633 17.2285 10.3283 17.2644L8.79794 21.4993C8.78644 21.4877 8.77614 21.4751 8.76701 21.4614L9.52189 17.1494C9.62382 17.1524 9.72588 17.1592 9.82818 17.1743ZM8.6165 17.1587C8.68979 17.158 8.76322 17.1607 8.83425 17.1601C9.02604 17.1587 9.21791 17.1475 9.41024 17.1477L8.68813 21.2724C8.67114 21.2224 8.65263 21.1732 8.62474 21.1316C8.6219 21.1274 8.61928 21.123 8.6165 21.1187V17.1587H8.6165ZM7.19299 17.5091C7.34032 17.4528 7.49039 17.4133 7.6408 17.3776L8.18129 20.465C8.0957 20.4055 8.01977 20.3886 7.93121 20.4101L6.92235 17.6183C7.01166 17.5805 7.10176 17.544 7.19299 17.5091ZM6.82086 17.6622L7.82787 20.4489C7.80609 20.4595 7.78339 20.4717 7.75943 20.4858C7.71076 20.5143 7.66863 20.5485 7.63359 20.5867L6.15371 18.005C6.36733 17.8768 6.59044 17.7638 6.82086 17.6622ZM5.97074 18.1195C6.00005 18.1001 6.02992 18.0817 6.05963 18.063L7.56337 20.6863C7.52313 20.7649 7.50957 20.8528 7.52919 20.9411C7.53438 20.9645 7.53997 20.9877 7.54577 21.0108L5.45049 18.4958C5.61836 18.3624 5.79208 18.2375 5.97074 18.1195ZM5.36431 18.5651L7.63139 21.2864C7.66197 21.3691 7.69642 21.4508 7.7352 21.532C7.73858 21.5391 7.74141 21.5464 7.74469 21.5536L4.81838 19.0804C4.99005 18.8937 5.17268 18.7229 5.36431 18.5651ZM4.74395 19.1625L7.82361 21.7653C7.83025 21.788 7.83636 21.8108 7.84194 21.8338L4.27817 19.7614C4.41969 19.5541 4.57474 19.3543 4.74395 19.1625ZM4.03849 20.1405C4.09512 20.0434 4.15456 19.9479 4.21641 19.8538L7.8701 21.9784C7.87135 21.9873 7.87233 21.9961 7.87342 22.005L3.83589 20.5249C3.89805 20.3942 3.96527 20.266 4.03849 20.1405ZM3.78945 20.626L7.88305 22.1267C7.88322 22.131 7.88339 22.1353 7.88352 22.1395L3.52268 21.365C3.59385 21.1098 3.68266 20.8636 3.78945 20.626ZM3.45016 21.6513C3.46349 21.5912 3.4781 21.5317 3.49329 21.4726L7.88292 22.2522C7.88279 22.2551 7.88281 22.2579 7.88267 22.2608H3.36149C3.38322 22.0578 3.40514 21.8544 3.45016 21.6513ZM3.30328 22.7161C3.32274 22.6016 3.33659 22.4868 3.34931 22.3718H7.89277C7.89324 22.374 7.89371 22.3762 7.89419 22.3784L3.30865 23.1928C3.28706 23.0344 3.27612 22.8758 3.30328 22.7161ZM3.38572 23.7655C3.3779 23.6105 3.34932 23.4566 3.32492 23.3027L7.90711 22.4889C7.90691 22.4917 7.90709 22.4944 7.90677 22.4972L3.46095 24.127C3.42264 24.0097 3.39204 23.8905 3.38572 23.7655ZM3.60578 24.5546C3.57557 24.4456 3.53508 24.3391 3.49697 24.232L7.9242 22.609C7.92707 22.6119 7.93015 22.6146 7.93334 22.6174L3.80293 25.0193C3.7211 24.8723 3.65136 24.7191 3.60578 24.5546ZM4.18757 25.6142C4.07713 25.4499 3.96097 25.2863 3.85837 25.1153L8.04316 22.6818L4.33943 25.812C4.28519 25.7478 4.23346 25.6825 4.18757 25.6142ZM4.61084 26.1241C4.54671 26.0467 4.47857 25.9715 4.4119 25.8957L8.11404 22.7669L5.0267 26.4727C4.87814 26.3667 4.72731 26.2646 4.61084 26.1241ZM5.31093 26.7038C5.25067 26.6429 5.18448 26.5891 5.11625 26.538L8.15803 22.8868C8.1535 22.9041 8.14702 22.9226 8.1386 22.9428L5.83223 26.9663C5.65425 26.8834 5.45277 26.8472 5.31093 26.7038ZM6.69055 27.331C6.59503 27.2866 6.49804 27.2389 6.39355 27.2208C6.30947 27.2063 6.30664 27.1476 6.33157 27.0725C6.36919 26.9592 6.44218 26.8668 6.49415 26.7623C6.52987 26.6906 6.55982 26.6044 6.47239 26.5615C6.38701 26.5197 6.33203 26.5913 6.29931 26.6657C6.25705 26.7619 6.22026 26.8606 6.18034 26.9578C6.1376 27.0619 6.06207 27.1142 5.96403 27.0424C5.95272 27.0341 5.94113 27.0264 5.9294 27.019L8.16569 23.1177C8.1799 23.1246 8.19293 23.1323 8.20478 23.1407L6.69055 27.331ZM6.95545 27.4197C6.89997 27.4138 6.8458 27.397 6.79183 27.3755L8.2865 23.2393C8.30364 23.2763 8.31382 23.3181 8.31902 23.3638C8.31941 23.3673 8.31979 23.3708 8.32017 23.3743L7.59638 27.5087C7.37864 27.4812 7.16759 27.442 6.95545 27.4197ZM8.50624 27.5409C8.41263 27.5436 8.31982 27.5414 8.2282 27.5322C8.04709 27.5467 7.8743 27.5388 7.70613 27.5213L8.41266 23.4855C8.42706 23.48 8.44359 23.4715 8.46333 23.4585C8.4739 23.4515 8.48893 23.4493 8.50624 23.4535V27.5409H8.50624ZM8.50624 20.9155C8.45049 20.8007 8.39635 20.685 8.3147 20.5875L7.74838 17.3526C7.93877 17.309 8.12881 17.2671 8.31366 17.2013C8.37537 17.1793 8.44021 17.1683 8.50624 17.1629V20.9155H8.50624ZM8.6165 27.5354V23.5573C8.70375 23.6944 8.70016 23.8287 8.67482 23.9877C8.66382 24.0567 8.74379 24.1638 8.8439 24.2499L9.39676 27.4079C9.1348 27.4652 8.8729 27.5175 8.6165 27.5354ZM9.59581 27.3639C9.56541 27.3706 9.53499 27.3774 9.50456 27.3841L8.9718 24.341C9.02033 24.3682 9.06707 24.3858 9.10504 24.3877C9.15467 24.3902 9.20434 24.3928 9.25401 24.3954L10.2547 27.1645C10.0407 27.246 9.82147 27.314 9.59581 27.3639ZM10.3574 27.1241L9.37365 24.4017C9.48377 24.4077 9.59391 24.4139 9.704 24.4207L11.0609 26.7879C10.8319 26.9129 10.5979 27.0269 10.3574 27.1241ZM11.7834 26.3016C11.6322 26.3925 11.5049 26.5315 11.3494 26.6236C11.2858 26.6612 11.2218 26.6982 11.1575 26.7343L9.83634 24.4295C9.98403 24.4394 10.1315 24.4507 10.2786 24.464L11.8005 26.2908C11.7948 26.2944 11.7892 26.2981 11.7834 26.3016ZM10.9099 23.7461C10.7103 23.7392 10.5104 23.7337 10.3109 23.7224L9.97066 23.4349C9.96531 23.422 9.96183 23.41 9.96149 23.3999C9.95962 23.3442 9.99195 23.3354 10.0387 23.3312C10.0859 23.3269 10.1331 23.3241 10.1803 23.3219L10.9099 23.7461ZM10.3931 23.3174C10.5973 23.3181 10.8012 23.3313 11.0048 23.343C11.0838 23.3476 11.1629 23.3526 11.242 23.3581L12.4112 23.7867C12.0179 23.7809 11.6242 23.7823 11.2312 23.76C11.2034 23.7585 11.1755 23.7575 11.1477 23.7562L10.3931 23.3174ZM11.8933 26.2294L10.4351 24.4791C10.5306 24.4887 10.6259 24.4989 10.7209 24.5107C10.8523 24.5269 10.9841 24.5386 11.116 24.5478L12.4714 25.6933C12.2881 25.8815 12.1103 26.0757 11.8933 26.2294ZM12.6608 25.5066C12.623 25.5418 12.5859 25.5778 12.5494 25.6143L11.3014 24.5595C11.6787 24.5807 12.0568 24.5896 12.4321 24.6313L13.0449 24.9876C12.9266 25.1685 12.8204 25.3587 12.6608 25.5066ZM13.1324 24.8602C13.1238 24.8719 13.1158 24.8839 13.1074 24.8958L12.721 24.6711C12.7899 24.6825 12.8588 24.6949 12.9274 24.7097C12.9906 24.7233 13.0459 24.7527 13.1081 24.7661C13.1537 24.7759 13.1672 24.8132 13.1324 24.8602ZM13.6098 23.827C13.5105 23.8265 13.4112 23.8269 13.3119 23.8269C13.1265 23.8103 12.9409 23.8007 12.7551 23.7946L11.6633 23.3944C11.7857 23.4073 11.9077 23.4225 12.0291 23.441C12.5572 23.5217 13.0929 23.4979 13.6207 23.578C13.715 23.5923 13.7125 23.6429 13.7136 23.6986C13.7148 23.7637 13.6976 23.8275 13.6098 23.827ZM14.0109 22.4767C14.0472 22.7027 13.9204 22.7135 13.7522 22.6974C13.0668 22.6319 12.3765 22.6433 11.6915 22.5655C11.5352 22.5477 11.3758 22.5442 11.2186 22.5514C10.8063 22.5703 10.3961 22.506 9.98453 22.5127L9.50352 22.4272C9.49824 22.4218 9.493 22.4162 9.48783 22.4102C9.4766 22.3972 9.4652 22.3845 9.45377 22.3718H14.0327C14.0197 22.4079 14.0055 22.4437 14.0109 22.4767ZM14.0619 22.2608H9.35433C9.34735 22.2525 9.34052 22.244 9.33382 22.2355L14.0427 21.3992C14.047 21.5229 14.0527 21.6467 14.0948 21.7698C14.1467 21.9217 14.1009 22.0954 14.0619 22.2608ZM15.4294 37.7008C15.7288 37.5395 16.0056 37.3444 16.2484 37.1078C16.557 36.8069 16.8137 36.4682 16.8899 36.0245C16.8948 35.9957 16.9116 35.9639 16.9046 35.9387C16.8406 35.7085 16.9984 35.6231 17.1555 35.5287C17.3398 35.418 17.5103 35.282 17.7006 35.1844C17.9307 35.0665 17.937 35.0789 17.9305 35.3675C17.9459 35.4977 17.9392 35.6439 17.7279 35.6687C17.6613 35.6765 17.6432 35.7374 17.7068 35.7569C17.9673 35.8369 17.863 36.0466 17.8527 36.1982C17.8259 36.595 17.7628 36.9891 17.7256 37.3854C17.7003 37.6544 17.5451 37.864 17.4314 38.0923C17.4005 38.1543 17.3257 38.1798 17.2502 38.1708C16.6612 38.1009 16.072 38.0325 15.4835 37.9583C15.4195 37.9502 15.324 37.953 15.3055 37.874C15.2857 37.789 15.3634 37.7364 15.4294 37.7008ZM14.0535 46.2722C13.9775 46.2741 13.9481 46.2658 13.9369 46.2281L15.0469 44.8956C14.9612 45.0756 14.871 45.2535 14.7768 45.4304C14.7092 45.5575 14.6471 45.6893 14.5862 45.822L14.0535 46.2722ZM14.478 46.0585C14.4605 46.0966 14.4431 46.1348 14.4253 46.1727C14.3814 46.2664 14.3287 46.3472 14.2096 46.2853L14.478 46.0585ZM13.8627 46.1443L13.7993 46.2205C13.7926 46.2157 13.7863 46.2095 13.7805 46.2027C13.7363 46.1509 13.7632 46.1051 13.7895 46.0589C13.8003 46.04 13.8134 46.0223 13.8522 45.9636C13.8564 46.0357 13.8619 46.0648 13.8588 46.0928C13.8569 46.1093 13.8602 46.1269 13.8627 46.1443ZM13.69 45.3319C13.6394 45.0947 13.6265 44.8624 13.6217 44.6353C13.6204 44.5759 13.6187 44.5165 13.617 44.4571L13.9876 42.3405C14.0794 42.3722 14.1681 42.4112 14.2531 42.4624C14.3707 42.5333 14.5068 42.5432 14.6349 42.5734C14.6541 42.5779 14.6706 42.579 14.6853 42.5777L13.69 45.3319ZM14.9472 42.1776C14.9956 42.199 15.0409 42.2382 15.0825 42.2755C15.0999 42.2911 15.1186 42.3054 15.1372 42.3195C15.326 42.4635 15.3353 42.4929 15.2226 42.6907C14.8493 43.346 14.4742 44.0002 14.099 44.6543C14.0577 44.7263 14.016 44.798 13.9743 44.8697L14.9472 42.1776ZM14.8043 42.1804C14.814 42.1751 14.8236 42.1713 14.8332 42.1683L14.7702 42.3426C14.7599 42.278 14.7483 42.2108 14.8043 42.1804ZM14.0341 45.621L14.3774 45.0221C14.7824 44.3331 15.1721 43.6354 15.5706 42.9427C15.622 42.8533 15.6603 42.7571 15.7912 42.8377C15.9021 42.9059 16.0106 42.9491 15.9231 43.1291C15.7188 43.5498 15.4578 43.9406 15.2791 44.3741C15.2591 44.4226 15.2378 44.4704 15.2171 44.5185L13.9293 46.0644C13.9312 45.8948 13.9742 45.7514 14.0341 45.621ZM16.3521 43.3454C16.4024 43.2428 16.4584 43.229 16.5481 43.2886C16.5959 43.3204 16.6492 43.3438 16.699 43.3728C16.764 43.4108 16.7884 43.5645 16.9101 43.446C16.9173 43.439 16.963 43.4634 16.9841 43.4812C17.0464 43.5338 17.0995 43.5936 17.1472 43.6575L15.4371 45.1028C15.615 44.7545 15.8165 44.4175 15.9821 44.0632C16.096 43.8195 16.2336 43.5871 16.3521 43.3454ZM16.3254 38.8587C16.5179 38.8163 16.7004 38.8714 16.884 38.8883C16.9843 38.8975 16.9841 38.96 16.9245 39.0307C16.849 39.1203 16.7167 39.1396 16.6597 39.2527C16.6476 39.2768 16.6145 39.2733 16.6017 39.2508C16.5226 39.1125 16.3414 39.0459 16.3254 38.8587ZM17.2104 43.7491C17.2414 43.7975 17.2703 43.8473 17.298 43.8979C17.3295 43.9553 17.4777 44.1383 17.5312 44.2391C17.5686 44.3094 17.6055 44.3789 17.6399 44.4497L15.099 45.9272C15.0993 45.9265 15.0997 45.9257 15.0999 45.925C15.1563 45.7253 15.2318 45.5348 15.3173 45.3491L17.2104 43.7491ZM14.675 46.6382L18.0061 45.417C18.0025 45.6603 18.1453 45.8712 18.1617 46.1092C18.1638 46.1402 18.1661 46.1712 18.1683 46.2023L14.5955 46.8368C14.6226 46.7709 14.6482 46.7043 14.675 46.6382ZM14.7355 46.4978C14.7502 46.466 14.7655 46.4346 14.7822 46.4038C14.8258 46.3234 14.8652 46.2403 14.9137 46.1632L17.6861 44.551C17.7221 44.6342 17.7535 44.7205 17.7763 44.8135C17.8143 44.9681 17.9344 45.1166 17.978 45.2866C17.9797 45.2933 17.982 45.3 17.9845 45.3067L14.7355 46.4978ZM13.7944 37.0209C14.0159 37.2902 14.1911 37.5422 14.4227 37.7703C14.2891 37.8025 14.182 37.781 14.0749 37.7644C13.9576 37.7462 13.9576 37.6268 13.946 37.5608C13.9197 37.4106 13.9081 37.2639 13.7963 37.1462C13.782 37.1311 13.7944 37.0905 13.7944 37.0209ZM13.7708 39.1977C13.8314 39.0211 13.8679 38.8396 13.8613 38.6525C13.8573 38.5421 13.9244 38.5448 13.9982 38.552C14.2994 38.5814 14.6015 38.605 14.9015 38.6438C15.0966 38.669 15.2961 38.6727 15.5105 38.7505C15.3355 38.8771 15.206 39.0264 15.09 39.1879C15.0452 39.2503 15.0104 39.3177 14.9997 39.3961C14.9928 39.4457 15.0547 39.5144 14.9965 39.539C14.937 39.5642 14.8395 39.5758 14.7938 39.5433C14.6218 39.4208 14.4294 39.4884 14.2493 39.4687C14.149 39.4576 14.0432 39.4477 13.9391 39.4475C13.791 39.4473 13.7221 39.3395 13.7708 39.1977ZM13.7213 42.267C13.7755 42.2792 13.8288 42.2925 13.8814 42.3074L13.5995 43.918C13.5812 43.4108 13.5627 42.9036 13.5761 42.3958C13.5791 42.2805 13.5823 42.2359 13.7213 42.267ZM13.2954 38.9921C13.3103 38.8634 13.3445 38.7856 13.4887 38.8306C13.5536 38.8509 13.5855 38.824 13.5935 38.7045C13.6643 39.0363 13.5885 39.2882 13.4757 39.5543C13.4108 39.3565 13.2706 39.2068 13.2954 38.9921ZM13.159 45.7283C13.1536 45.7309 13.1482 45.7324 13.1428 45.7336V44.0396C13.1736 44.5387 13.2196 45.037 13.1932 45.5376C13.1898 45.6026 13.2314 45.6938 13.159 45.7283ZM13.1887 45.9497C13.1775 45.9839 13.167 46.0227 13.1428 46.0507V45.8671C13.1758 45.8781 13.2051 45.8994 13.1887 45.9497ZM12.686 35.3647C12.7842 35.3337 12.8763 35.285 12.9644 35.1567C13.0212 35.5533 13.3247 35.8828 12.9945 36.2301C12.8164 36.0229 12.738 35.7589 12.6392 35.5064C12.6224 35.4635 12.5956 35.3933 12.686 35.3647ZM11.968 37.0923C12.0093 36.9362 12.1682 36.9165 12.2772 36.9166C12.4053 36.9167 12.4005 37.0819 12.4142 37.1774C12.4353 37.3247 12.27 37.2189 12.2353 37.2889C12.1126 37.2901 11.9475 37.1693 11.968 37.0923ZM12.1153 38.6022C12.1408 38.579 12.1681 38.5578 12.1945 38.5359C12.2579 38.5908 12.2806 38.6635 12.303 38.7348C12.3197 38.7881 12.3803 38.8457 12.3397 38.8953C12.2893 38.9568 12.2191 38.9004 12.1632 38.8813C12.0884 38.8558 11.9923 38.8281 11.9786 38.7423C11.9661 38.6644 12.066 38.6471 12.1153 38.6022ZM11.7618 38.6182C11.7002 38.5888 11.6637 38.541 11.7036 38.4608C11.7674 38.3329 11.8718 38.2545 11.9947 38.1956C12.033 38.1772 12.13 38.2741 12.1294 38.3271C12.1286 38.397 11.8212 38.6466 11.7618 38.6182ZM11.8116 37.2234C11.9202 37.2197 12.0073 37.2734 12.0286 37.3808C12.0462 37.4689 11.9199 37.4809 11.9181 37.5811C11.825 37.4976 11.698 37.4968 11.6826 37.3651C11.6709 37.2651 11.728 37.2262 11.8116 37.2234ZM11.6542 37.6145C11.6822 37.5935 11.9695 37.814 11.9907 37.8674C12.0071 37.9089 12.0024 37.9459 11.9698 37.9797C11.9375 38.0132 11.9136 38.0569 11.8772 38.0839C11.7996 38.1412 11.7079 38.2605 11.6383 38.2277C11.5432 38.1828 11.5784 38.0299 11.5415 37.9362C11.5768 37.8211 11.5502 37.6922 11.6542 37.6145ZM11.4096 38.5005C11.476 38.5271 11.4788 38.5725 11.4861 38.6275C11.4083 38.617 11.3985 38.5727 11.4096 38.5005ZM11.4665 39.1435C11.4729 39.0279 11.4625 38.9654 11.4441 38.9023C11.4245 38.8349 11.438 38.7755 11.5169 38.7517C11.5915 38.7292 11.641 38.7452 11.694 38.8143C11.8108 38.9667 11.9544 39.0922 12.1518 39.1285C12.2049 39.1383 12.2357 39.162 12.2525 39.2104C12.2649 39.2459 12.2981 39.2892 12.3226 39.2802C12.5026 39.2139 12.4088 39.3548 12.4098 39.4026C12.4132 39.5518 12.3398 39.6104 12.1862 39.5921C12.0231 39.5726 11.8579 39.5903 11.7087 39.6675C11.6362 39.705 11.5971 39.6888 11.5791 39.6174C11.5354 39.4441 11.4963 39.2698 11.4665 39.1435ZM12.3179 44.8684C12.3197 44.8445 12.3228 44.8197 12.3265 44.7936C12.3979 44.865 12.3948 44.9306 12.3643 44.9968L12.3179 44.8684ZM12.3415 45.2583C12.3396 45.2565 12.3378 45.2547 12.3362 45.2529C12.3196 45.2339 12.318 45.2195 12.3226 45.2061L12.3415 45.2583ZM12.3091 44.7C12.266 44.6963 12.2415 44.6593 12.2457 44.6101C12.2659 44.3767 12.2629 44.1517 12.1513 43.9308C12.1153 43.8596 12.171 43.7438 12.1507 43.642C12.0812 43.2945 12.0681 42.9372 11.9689 42.594C11.9368 42.4829 11.9987 42.3684 11.9778 42.2472C11.9676 42.1883 12.0874 42.185 12.157 42.1642L12.386 43.4724C12.386 43.4836 12.386 43.4942 12.386 43.5055C12.3624 43.8271 12.4263 44.2211 12.3522 44.6108C12.3461 44.6426 12.3796 44.706 12.3091 44.7ZM12.3847 42.6955C12.3855 42.7419 12.386 42.7884 12.3864 42.8352L12.2665 42.1505C12.3185 42.1611 12.3433 42.208 12.3622 42.2946C12.3918 42.4299 12.3822 42.5622 12.3847 42.6955ZM11.4956 42.3612C11.7398 42.2457 11.8611 42.3318 11.8402 42.6095C11.8259 42.7994 11.8595 42.9818 11.9069 43.1636C11.9497 43.3276 11.9134 43.4977 11.958 43.6657C11.987 43.7751 11.9971 43.8877 12.0045 44.0009L11.4242 42.3951C11.448 42.3838 11.4718 42.3725 11.4956 42.3612ZM10.9439 42.6597C10.9778 42.641 11.2001 42.516 11.2468 42.4879C11.2722 42.4726 11.2984 42.4584 11.3247 42.4446L12.1062 44.6072C12.1158 44.6795 12.0734 44.7658 12.0885 44.8509C12.1247 45.0552 12.1578 45.2606 12.1803 45.4668L10.6655 42.8242C10.7558 42.7654 10.8493 42.7118 10.9439 42.6597ZM10.474 42.9621C10.5066 42.9357 10.54 42.9107 10.5738 42.8865L12.1994 45.7223C12.1961 45.7822 12.1743 45.8449 12.0902 45.8772L9.98178 43.3464C10.1264 43.2341 10.4366 42.9925 10.474 42.9621ZM9.47043 43.8647C9.52436 43.8192 9.78613 43.5007 9.86046 43.4475C9.87329 43.4384 9.88542 43.4282 9.89739 43.4178L11.9761 45.913C11.9195 45.9387 11.8729 45.9797 11.8357 46.0303L9.38594 43.9599C9.42313 43.9145 9.4561 43.8768 9.47043 43.8647ZM9.22796 44.1741C9.23768 44.1532 9.27454 44.1018 9.31702 44.0467L11.78 46.1283C11.761 46.1716 11.7467 46.2181 11.7374 46.2655C11.7345 46.2799 11.7327 46.2941 11.7313 46.3081L8.88724 44.6542C8.9784 44.5091 9.20473 44.224 9.22796 44.1741ZM8.50224 45.4086C8.54323 45.2958 8.65072 45.0487 8.72148 44.9433C8.76268 44.8819 8.79753 44.8162 8.83275 44.7507L11.7433 46.4433C11.7664 46.5211 11.8175 46.5894 11.8949 46.6477C11.9078 46.6574 11.9199 46.6681 11.9323 46.6783L8.49837 45.4194C8.49967 45.4158 8.50093 45.4122 8.50224 45.4086ZM8.37017 45.75C8.40528 45.677 8.4336 45.6006 8.46099 45.5239L12.1335 46.8703C12.1432 46.8803 12.1529 46.8904 12.1625 46.9004C12.1759 46.9142 12.1858 46.9297 12.1943 46.9459L8.22966 46.2418C8.25937 46.0864 8.33267 45.8279 8.37017 45.75ZM8.18106 46.5023C8.19068 46.4519 8.20802 46.4022 8.21432 46.3519L12.2277 47.0646C12.2294 47.0784 12.2307 47.092 12.2319 47.1054H8.11608C8.13025 46.8866 8.15331 46.6476 8.18106 46.5023ZM8.10238 47.3901C8.10382 47.3379 8.10628 47.2789 8.10957 47.2165H12.2455C12.2478 47.2289 12.2507 47.2408 12.2534 47.2527L8.14161 47.983C8.12548 47.7854 8.0969 47.5894 8.10238 47.3901ZM8.15185 48.1811C8.15146 48.1522 8.15027 48.1233 8.14885 48.0945L12.2866 47.3596C12.2908 47.3702 12.2952 47.3805 12.2999 47.3907L8.2924 48.8598C8.24027 48.633 8.15489 48.4079 8.15185 48.1811ZM8.54838 49.6192C8.46125 49.4048 8.3706 49.1943 8.31698 48.969L12.3552 47.4886C12.3608 47.4968 12.3663 47.505 12.3722 47.5129L8.58799 49.7135C8.57469 49.6821 8.56122 49.6508 8.54838 49.6192ZM8.63247 49.8158L12.4471 47.5976C12.453 47.6033 12.4588 47.6092 12.465 47.6147L9.01978 50.5265C8.86999 50.3038 8.74305 50.0644 8.63247 49.8158ZM9.16602 50.7298C9.13748 50.6932 9.11 50.6558 9.08293 50.6181L12.5532 47.6852C12.5586 47.689 12.5642 47.6927 12.5696 47.6964L9.64384 51.2084C9.46508 51.0699 9.30654 50.9098 9.16602 50.7298ZM10.2123 51.5431C10.0387 51.4681 9.87943 51.3779 9.73293 51.2742L12.6651 47.7546C12.6699 47.7572 12.6745 47.7599 12.6792 47.7624L10.4503 51.6509C10.3713 51.6139 10.2921 51.5776 10.2123 51.5431ZM11.2584 52.0121C11.0166 51.9222 10.7837 51.8088 10.5506 51.6982L12.7735 47.8202C12.7778 47.8245 12.782 47.8289 12.786 47.8334L11.2742 52.0172C11.269 52.0154 11.2636 52.014 11.2584 52.0121ZM11.8315 52.1151C11.6895 52.0856 11.5306 52.0803 11.3807 52.047L12.8711 47.9228C12.8786 47.9281 12.8869 47.933 12.8957 47.9377L12.1555 52.1659C12.0478 52.1532 11.9399 52.1376 11.8315 52.1151ZM13.0326 52.2041C12.9223 52.2017 12.809 52.1932 12.7895 52.1932C12.7477 52.1932 12.6029 52.2096 12.5562 52.2052C12.459 52.1959 12.3622 52.1876 12.2654 52.1779L13.0017 47.9718C13.012 47.9739 13.0223 47.9758 13.0326 47.9775V52.2041ZM13.0326 46.0219C13.0199 46.0003 13.0143 45.9746 13.0167 45.9427C13.0184 45.9211 13.0238 45.9018 13.0326 45.8867V46.0219ZM13.0326 45.6916C13.0136 45.6782 12.9946 45.6647 12.9752 45.656C12.9272 45.6345 12.892 45.608 12.8664 45.577L12.8061 45.2325C12.812 44.8991 12.807 44.5559 12.807 44.1049C12.7669 43.5403 12.8531 42.848 12.8409 42.1541C12.8393 42.0667 12.8541 41.9989 12.9538 41.995C12.9956 41.9934 13.0189 42.0058 13.0326 42.0257V45.6916ZM13.7743 52.1147C13.7099 52.1342 13.4497 52.1709 13.394 52.1738C13.31 52.178 13.2266 52.1983 13.1428 52.2032V47.9898C13.1543 47.9907 13.1658 47.9916 13.1773 47.9926L13.8932 52.082C13.8533 52.0921 13.8136 52.1027 13.7743 52.1147ZM14.6015 51.8801C14.5676 51.8916 14.2768 51.9953 14.2152 52.0091C14.1439 52.0252 14.0721 52.0402 14.0007 52.0564L13.2916 48.0057C13.307 48.0084 13.3225 48.0116 13.3378 48.0154L14.7193 51.8384C14.6803 51.853 14.641 51.8668 14.6015 51.8801ZM15.05 51.6857C14.9764 51.7285 14.9 51.7651 14.822 51.7978L13.4661 48.0457C13.4877 48.0473 13.5092 48.0467 13.5303 48.0442L15.4868 51.4574C15.2907 51.5654 15.0845 51.6656 15.05 51.6857ZM16.1768 50.9837C16.1326 51.0184 15.8778 51.2266 15.8032 51.2626C15.7721 51.2776 15.7458 51.3024 15.7166 51.3215C15.6768 51.3476 15.6312 51.3753 15.5831 51.4031L13.6411 48.0153C13.6624 48.0069 13.6833 47.9973 13.7037 47.9868L16.1911 50.9725C16.1863 50.9762 16.1816 50.9799 16.1768 50.9837ZM16.5316 50.6703C16.4564 50.7596 16.3684 50.8332 16.2782 50.9043L13.8005 47.9301C13.8223 47.9161 13.8433 47.9021 13.8632 47.8889L16.8082 50.3778C16.7026 50.4889 16.5485 50.6503 16.5316 50.6703ZM16.9044 50.2758C16.9007 50.2798 16.8934 50.2876 16.8844 50.2972L13.957 47.8232C13.9797 47.8061 14.0022 47.7883 14.024 47.7696L17.3258 49.6896C17.1886 49.9016 17.0056 50.1632 16.9044 50.2758ZM17.5218 49.3533C17.498 49.3855 17.4858 49.4262 17.466 49.4616C17.4456 49.4978 17.4179 49.544 17.3854 49.596L14.1071 47.6896C14.1286 47.6663 14.1489 47.6419 14.1675 47.6159L17.7357 48.924C17.653 49.1126 17.5634 49.2971 17.5218 49.3533ZM17.8647 48.608C17.8419 48.6702 17.8121 48.7445 17.7796 48.8219L14.2248 47.5187C14.2389 47.4893 14.2511 47.4584 14.2604 47.4256L18.0197 48.0933C17.9748 48.2548 17.8908 48.5369 17.8647 48.608ZM18.0477 47.9854L14.2941 47.3188C14.2985 47.3118 14.3032 47.3053 14.3088 47.3C14.3365 47.2734 14.3614 47.2454 14.3848 47.2165H18.1933C18.1644 47.4755 18.101 47.7299 18.0477 47.9854ZM18.2036 47.1054H14.4634C14.4925 47.0582 14.5181 47.0092 14.5417 46.9591L18.1762 46.3137C18.1903 46.5086 18.2039 46.7037 18.2087 46.8989C18.2104 46.9682 18.2084 47.037 18.2036 47.1054ZM18.8372 26.0269C18.8264 26.0998 18.801 26.1475 18.7288 26.1891C18.5888 26.2698 18.5869 26.4111 18.7096 26.5133C18.8279 26.6118 18.7779 26.7467 18.7632 26.8564C18.6724 27.5372 18.6261 28.222 18.5601 28.905C18.4935 29.5936 18.423 30.2818 18.3577 30.9705C18.3278 31.2859 18.3064 31.6021 18.2806 31.9179C18.2727 32.0156 18.2772 32.1094 18.145 32.1474C18.0552 32.1733 18.0379 32.2845 18.03 32.3705C18.0231 32.4443 17.9999 32.4949 17.9408 32.5362C17.5564 32.8049 17.1847 33.0937 16.7002 33.1701C16.5781 33.1894 16.5528 33.1782 16.5743 33.0571C16.5987 32.9199 16.6103 32.7823 16.6864 32.6583C16.7224 32.5999 16.7386 32.5275 16.7328 32.4545C16.7279 32.3928 16.7163 32.3333 16.6417 32.3246C16.5616 32.3154 16.5467 32.3789 16.5348 32.4371C16.5254 32.4828 16.531 32.5323 16.5179 32.5765C16.4747 32.7223 16.3809 32.7571 16.2827 32.6457C16.122 32.4631 15.92 32.4767 15.7162 32.4933C15.5285 32.5086 15.5067 32.4943 15.5776 32.312C15.7961 31.75 16.0198 31.19 16.2448 30.6306C16.8062 29.2348 17.3706 27.8403 17.9313 26.4443C18.1669 25.8577 18.3962 25.2686 18.6283 24.6806C18.6565 24.6092 18.685 24.5346 18.7626 24.5051C18.8686 24.4649 18.9509 24.5525 18.9467 24.7252C18.8294 25.1332 18.9029 25.5859 18.8372 26.0269ZM21.8047 22.254C22.0742 22.1709 22.3579 22.1788 22.633 22.145C22.9368 22.1078 23.246 22.0861 23.6877 22.0324C23.8745 21.9836 23.9924 22.2487 24.1444 22.4339C24.4882 22.8528 24.8212 23.2804 25.1764 23.6898C25.2069 23.725 25.2913 23.7643 25.2496 23.8315C25.209 23.8969 25.1437 23.8432 25.0904 23.8334C24.1879 23.6666 23.2921 23.4676 22.3983 23.2597C22.3026 23.2375 22.2114 23.195 22.1183 23.1616C22.0012 23.1195 21.9263 23.0812 21.9433 22.9095C21.9566 22.7749 21.9239 22.5872 21.7527 22.5097C21.6742 22.4742 21.6853 22.4132 21.6841 22.3493C21.6823 22.2607 21.7522 22.2702 21.8047 22.254ZM25.199 24.9186C25.0543 25.1085 24.8241 25.1993 24.6656 25.3693C24.303 25.758 23.8463 26.045 23.5128 26.4641C23.4765 26.5098 23.4342 26.5518 23.3894 26.5893C22.8871 27.0101 22.4747 27.5264 21.9669 27.9422C21.6489 28.2025 21.33 28.4607 20.9846 28.6828C20.5956 28.9329 20.4465 29.3343 20.3277 29.7469C20.2535 30.0048 20.2235 30.2756 20.175 30.5409C20.1263 30.807 19.9117 30.9439 19.7343 31.1062C19.637 31.1951 19.5176 31.2591 19.4097 31.3365C19.2911 31.4216 19.246 31.3894 19.2626 31.248C19.266 31.2189 19.263 31.1892 19.263 31.1597C19.2609 31.1595 19.2587 31.1593 19.2565 31.1591C19.3011 30.6924 19.3458 30.2257 19.3905 29.759C19.4296 29.3504 19.4678 28.9417 19.508 28.5333C19.5625 27.9792 19.6197 27.4254 19.6735 26.8713C19.7137 26.4569 19.751 26.0422 19.7884 25.6275C19.8136 25.3471 19.8304 25.0657 19.8636 24.7863C19.8765 24.6775 19.9113 24.561 20.0733 24.6504C20.1207 24.6766 20.1876 24.6666 20.2453 24.6745C20.348 24.6886 20.4457 24.7061 20.5119 24.8048C20.5899 24.9212 20.7057 24.9706 20.8454 24.957C21.0455 24.9376 21.2971 25.047 21.4345 24.8865C21.5916 24.703 21.6572 24.443 21.7125 24.1973C21.7305 24.1174 21.7372 24.035 21.7515 23.9541C21.7867 23.7545 21.8455 23.7003 22.0307 23.7685C22.5912 23.9748 23.1826 24.0461 23.7572 24.1897C24.1732 24.2938 24.5947 24.3773 25.0159 24.4589C25.4169 24.5366 25.445 24.5958 25.199 24.9186ZM30.3049 19.5061C30.2763 19.5712 30.248 19.6396 30.2717 19.7107C30.3503 19.9461 30.2644 20.1564 30.1722 20.3627C30.1158 20.4888 30.079 20.6166 30.082 20.7535C30.0846 20.8685 30.0412 20.9311 29.9295 20.9755C29.6122 21.1016 29.4069 21.2973 29.3904 21.6872C29.3791 21.9552 29.2767 22.2112 29.1092 22.459C28.9151 22.7464 28.6951 22.9304 28.3828 23.0508C28.0783 23.1683 27.7745 23.2793 27.453 23.3371C27.2498 23.3737 27.0526 23.4289 26.899 23.5777C26.6972 23.7733 26.4381 23.8696 26.1996 24.0023C26.1334 24.0391 26.0951 24.0167 26.0515 23.9718C25.7379 23.6483 25.4403 23.3109 25.1593 22.9579C25.0622 22.8359 24.9641 22.7151 24.827 22.6259C24.7067 22.5475 24.7154 22.3757 24.6373 22.2601C24.635 22.2567 24.664 22.2272 24.6819 22.2153C25.1879 21.8801 25.6904 21.5408 25.9443 20.9515C26.0397 20.7302 26.2314 20.6288 26.4363 20.5628C26.7257 20.4696 27.0077 20.3626 27.2794 20.2263C27.6048 20.063 27.9568 19.9746 28.3032 19.8751C28.8494 19.7182 29.3225 19.4453 29.7133 19.0317C29.8467 18.8905 29.9989 18.7723 30.1417 18.6427C30.2211 18.5708 30.2659 18.59 30.2793 18.6914C30.3061 18.8948 30.3296 19.0987 30.3545 19.3023C30.3624 19.3768 30.3334 19.4411 30.3049 19.5061Z" fill="#EBF5EE"/>
    <path d="M8.7387 45.2441C8.7387 45.2441 8.74512 45.2361 8.74572 45.2359C8.74632 45.2356 8.7411 45.2386 8.7411 45.2386L8.7387 45.2441Z" fill="black"/>
</svg>
